<?xml version="1.0" encoding="UTF-8" standalone="no"?>
<svg
   id="Layer_1"
   data-name="Layer 1"
   viewBox="0 0 1080 720"
   version="1.1"
   sodipodi:docname="margintopBigLogo.svg"
   width="1080"
   height="720"
   inkscape:version="1.3 (0e150ed, 2023-07-21)"
   xmlns:inkscape="http://www.inkscape.org/namespaces/inkscape"
   xmlns:sodipodi="http://sodipodi.sourceforge.net/DTD/sodipodi-0.dtd"
   xmlns="http://www.w3.org/2000/svg"
   xmlns:svg="http://www.w3.org/2000/svg">
  <sodipodi:namedview
     id="namedview12"
     pagecolor="#505050"
     bordercolor="#eeeeee"
     borderopacity="1"
     inkscape:showpageshadow="0"
     inkscape:pageopacity="0"
     inkscape:pagecheckerboard="0"
     inkscape:deskcolor="#505050"
     inkscape:zoom="0.53229427"
     inkscape:cx="464.96837"
     inkscape:cy="434.90981"
     inkscape:window-width="1920"
     inkscape:window-height="1011"
     inkscape:window-x="0"
     inkscape:window-y="32"
     inkscape:window-maximized="1"
     inkscape:current-layer="Layer_1" />
  <defs
     id="defs1">
    <style
       id="style1">.cls-1{fill:#fff;}</style>
  </defs>
  <path
     class="cls-1"
     d="m 86.50863,542.29171 h 27.61 l 30.9,87.69 h 0.31 l 30.12,-87.69 h 27.29 v 112 h -18.66 v -86.47 h -0.34 l -31,86.47 h -16.19 l -31.06,-86.43 h -0.31 v 86.43 h -18.67 z"
     id="path1" />
  <path
     class="cls-1"
     d="m 252.46863,542.29171 h 20.86 l 43.13,112 h -21 l -10.52,-29.69 h -44.71 l -10.49,29.69 h -20.25 z m -6.9,67.45 h 34.17 l -16.78,-48.16 h -0.48 z"
     id="path2" />
  <path
     class="cls-1"
     d="m 323.36863,542.29171 h 53.49 q 18.5,0 27.76,8 9.26,8 9.25,22.28 a 32.48,32.48 0 0 1 -2.35,13.25 29,29 0 0 1 -5.49,8.47 21.27,21.27 0 0 1 -6.19,4.63 q -3.06,1.41 -4.47,1.88 v 0.31 a 20.37,20.37 0 0 1 5.41,1.57 16,16 0 0 1 5.41,4 21.69,21.69 0 0 1 4.15,7.14 31.51,31.51 0 0 1 1.65,11 99.61,99.61 0 0 0 1.49,18 q 1.49,8.09 4.63,11.53 h -21 a 18.22,18.22 0 0 1 -2.59,-8 q -0.39,-4.4 -0.39,-8.47 a 80.64,80.64 0 0 0 -0.94,-13.26 23.2,23.2 0 0 0 -3.45,-9.33 14.61,14.61 0 0 0 -6.83,-5.41 30.06,30.06 0 0 0 -11,-1.73 h -28.94 v 46.14 h -19.6 z m 19.6,51 h 32.16 q 9.41,0 14.27,-4.47 4.86,-4.47 4.87,-13.41 a 20.85,20.85 0 0 0 -1.57,-8.71 12.79,12.79 0 0 0 -4.31,-5.25 15.91,15.91 0 0 0 -6.28,-2.51 41.37,41.37 0 0 0 -7.29,-0.63 h -31.85 z"
     id="path3" />
  <path
     class="cls-1"
     d="m 527.73863,654.29171 h -12.54 l -3,-13.18 q -7.85,8.94 -15.68,12.4 a 44.59,44.59 0 0 1 -18,3.45 52.88,52.88 0 0 1 -22.53,-4.67 49.48,49.48 0 0 1 -16.86,-12.63 56.16,56.16 0 0 1 -10.59,-18.66 71.48,71.48 0 0 1 0,-45.34 56.16,56.16 0 0 1 10.59,-18.66 50.34,50.34 0 0 1 16.86,-12.71 52,52 0 0 1 22.51,-4.71 60.94,60.94 0 0 1 17.33,2.44 46.3,46.3 0 0 1 14.67,7.21 39.89,39.89 0 0 1 10.66,12 41.94,41.94 0 0 1 5.34,16.63 h -19.14 a 24,24 0 0 0 -9.88,-16.63 28.63,28.63 0 0 0 -8.79,-4.23 36,36 0 0 0 -10.19,-1.42 31.45,31.45 0 0 0 -15.45,3.61 30.33,30.33 0 0 0 -10.59,9.65 43.61,43.61 0 0 0 -6,13.72 63.78,63.78 0 0 0 0,31.38 43.51,43.51 0 0 0 6,13.72 30.33,30.33 0 0 0 10.59,9.63 31.34,31.34 0 0 0 15.45,3.61 36.42,36.42 0 0 0 13.33,-2 26.56,26.56 0 0 0 9.81,-6.11 25.92,25.92 0 0 0 6,-9.81 41.46,41.46 0 0 0 2.19,-12.86 h -29.8 v -14.83 h 47.71 z"
     id="path4" />
  <path
     class="cls-1"
     d="m 545.31863,542.29171 h 19.61 v 112 h -19.61 z"
     id="path5" />
  <path
     class="cls-1"
     d="m 584.37863,542.29171 h 20.7 l 51.14,82.51 h 0.31 v -82.51 h 18.67 v 112 h -20.71 l -51,-82.35 h -0.47 v 82.35 h -18.64 z"
     id="path6" />
  <path
     class="cls-1"
     d="m 698.07863,542.29171 h 90.66 v 16.9 h -35.61 v 95.1 h -19.6 v -95.1 h -35.45 z"
     id="path7" />
  <path
     class="cls-1"
     d="m 845.67863,539.58171 a 52,52 0 0 1 22.51,4.71 50.34,50.34 0 0 1 16.86,12.71 56.51,56.51 0 0 1 10.59,18.66 71.48,71.48 0 0 1 0,45.34 56.51,56.51 0 0 1 -10.59,18.66 49.48,49.48 0 0 1 -16.86,12.63 57,57 0 0 1 -45,0 49.48,49.48 0 0 1 -16.86,-12.63 56.33,56.33 0 0 1 -10.59,-18.66 71.48,71.48 0 0 1 0,-45.34 56.33,56.33 0 0 1 10.59,-18.66 50.34,50.34 0 0 1 16.84,-12.71 52,52 0 0 1 22.51,-4.71 z m 0,16 a 31.45,31.45 0 0 0 -15.45,3.61 30.33,30.33 0 0 0 -10.59,9.65 43.61,43.61 0 0 0 -6,13.72 63.78,63.78 0 0 0 0,31.38 43.51,43.51 0 0 0 6,13.72 30.33,30.33 0 0 0 10.59,9.63 34.87,34.87 0 0 0 30.9,0 30.33,30.33 0 0 0 10.61,-9.63 43.51,43.51 0 0 0 6,-13.72 63.78,63.78 0 0 0 0,-31.38 43.61,43.61 0 0 0 -6,-13.72 30.33,30.33 0 0 0 -10.59,-9.65 31.45,31.45 0 0 0 -15.47,-3.61 z"
     id="path8" />
  <path
     class="cls-1"
     d="m 913.43863,542.29171 h 49.41 q 11.92,0 19.45,3.45 a 30.72,30.72 0 0 1 11.61,8.55 29.2,29.2 0 0 1 5.57,11.29 48.21,48.21 0 0 1 1.48997,11.3 47.11,47.11 0 0 1 -1.48997,11.21 29.27,29.27 0 0 1 -5.57,11.22 30.08,30.08 0 0 1 -11.61,8.55 q -7.56,3.43 -19.45,3.43 h -29.8 v 43 h -19.61 z m 19.61,53 h 28.69 a 25.46,25.46 0 0 0 6.74,-0.94 19.35,19.35 0 0 0 6.35,-3.06 15.54,15.54 0 0 0 4.71,-5.65 19.38,19.38 0 0 0 1.8,-8.86 23.05,23.05 0 0 0 -1.56,-9.1 14.57,14.57 0 0 0 -4.24,-5.72 15.1,15.1 0 0 0 -6.12,-2.91 33.39,33.39 0 0 0 -7.37,-0.78 h -29 z"
     id="path9" />
  <path
     class="cls-1"
     d="m 474.90863,285.80171 113.23,174.19 a 20.91,20.91 0 0 1 -17.53,32.3 h -80.58 a 20.9,20.9 0 0 1 -17.8,-10 l -104,-169 z"
     id="path10" />
  <path
     class="cls-1"
     d="m 560.93863,371.64171 39.21,57.78 a 20.91,20.91 0 0 0 35.68,-1.78 l 73.1,-135 -117,-6.88 -32.39,64.8 a 20.89,20.89 0 0 0 1.4,21.08 z"
     id="path11" />
  <path
     class="cls-1"
     d="m 838.64863,323.04171 -267,-227.110007 a 43.09,43.09 0 0 0 -55.84,0 l -267,227.110007 c -16.82,14.3 -2.3,41.44 18.93,35.4 l 276,-78.61 276,78.61 c 21.21,6.04 35.73,-21.1 18.91,-35.4 z"
     id="path12" />
</svg>
