<?xml version="1.0" encoding="UTF-8" standalone="no"?>
<svg
   id="Layer_1"
   data-name="Layer 1"
   viewBox="0 0 1080 256"
   version="1.1"
   sodipodi:docname="margintoplogo.svg"
   width="1080"
   height="256"
   inkscape:version="1.3 (0e150ed, 2023-07-21)"
   xmlns:inkscape="http://www.inkscape.org/namespaces/inkscape"
   xmlns:sodipodi="http://sodipodi.sourceforge.net/DTD/sodipodi-0.dtd"
   xmlns="http://www.w3.org/2000/svg"
   xmlns:svg="http://www.w3.org/2000/svg">
  <sodipodi:namedview
     id="namedview12"
     pagecolor="#505050"
     bordercolor="#eeeeee"
     borderopacity="1"
     inkscape:showpageshadow="0"
     inkscape:pageopacity="0"
     inkscape:pagecheckerboard="0"
     inkscape:deskcolor="#505050"
     inkscape:zoom="0.53229427"
     inkscape:cx="404.85125"
     inkscape:cy="613.38252"
     inkscape:window-width="1920"
     inkscape:window-height="1011"
     inkscape:window-x="0"
     inkscape:window-y="32"
     inkscape:window-maximized="1"
     inkscape:current-layer="Layer_1" />
  <defs
     id="defs1">
    <style
       id="style1">.cls-1{fill:#fff;}</style>
  </defs>
  <path
     class="cls-1"
     d="m 261.78341,92.89849 h 24.21 l 27.09,76.89 h 0.28 l 26.41,-76.89 h 23.93 v 98.23 h -16.36 v -75.8 h -0.28 l -27.24,75.8 h -14.16 l -27.24,-75.8 h -0.27 v 75.8 h -16.37 z"
     id="path1" />
  <path
     class="cls-1"
     d="m 407.31341,92.89849 h 18.29 l 37.83,98.23 h -18.43 l -9.22,-26 h -39.23 l -9.22,26 h -17.71 z m -6.05,59.15 h 30 l -14.71,-42.23 h -0.41 z"
     id="path2" />
  <path
     class="cls-1"
     d="m 469.48341,92.89849 h 46.91 q 16.23,0 24.35,7 8.12,7 8.11,19.53 a 28.58,28.58 0 0 1 -2.06,11.62 25.26,25.26 0 0 1 -4.82,7.43 18.81,18.81 0 0 1 -5.43,4.06 c -1.79,0.82 -3.09,1.37 -3.92,1.65 v 0.27 a 18,18 0 0 1 4.75,1.38 14.1,14.1 0 0 1 4.74,3.51 19.12,19.12 0 0 1 3.65,6.26 27.72,27.72 0 0 1 1.44,9.63 87.34,87.34 0 0 0 1.35,15.77 q 1.27,7.12 4,10.12 h -18.42 a 16.12,16.12 0 0 1 -2.27,-7 c -0.23,-2.57 -0.34,-5 -0.34,-7.43 a 72,72 0 0 0 -0.82,-11.62 20.61,20.61 0 0 0 -3,-8.12 12.82,12.82 0 0 0 -6,-4.74 26.34,26.34 0 0 0 -9.69,-1.51 h -25.33 v 40.42 h -17.2 z m 17.2,44.71 h 28.2 q 8.25,0 12.51,-3.92 4.26,-3.92 4.27,-11.76 a 18.16,18.16 0 0 0 -1.38,-7.64 11.19,11.19 0 0 0 -3.78,-4.61 14,14 0 0 0 -5.5,-2.2 37.26,37.26 0 0 0 -6.4,-0.55 h -27.92 z"
     id="path3" />
  <path
     class="cls-1"
     d="m 648.71341,191.12849 h -11 l -2.61,-11.56 q -6.88,7.85 -13.76,10.87 a 39.09,39.09 0 0 1 -15.82,3 46.41,46.41 0 0 1 -19.74,-4.05 43.41,43.41 0 0 1 -14.78,-11.08 49.27,49.27 0 0 1 -9.29,-16.37 62.76,62.76 0 0 1 0,-39.75 49.46,49.46 0 0 1 9.29,-16.37 44.22,44.22 0 0 1 14.78,-11.14 45.69,45.69 0 0 1 19.77,-4.12 53.08,53.08 0 0 1 15.2,2.14 40.63,40.63 0 0 1 12.8,6.32 35.17,35.17 0 0 1 9.36,10.53 36.88,36.88 0 0 1 4.7,14.58 h -16.78 a 21.11,21.11 0 0 0 -8.66,-14.58 25.28,25.28 0 0 0 -7.71,-3.72 32.07,32.07 0 0 0 -8.94,-1.24 27.56,27.56 0 0 0 -13.55,3.17 26.58,26.58 0 0 0 -9.28,8.46 38.12,38.12 0 0 0 -5.3,12 55.86,55.86 0 0 0 0,27.51 38.08,38.08 0 0 0 5.3,12 26.58,26.58 0 0 0 9.28,8.46 27.55,27.55 0 0 0 13.58,3.23 31.79,31.79 0 0 0 11.69,-1.72 23,23 0 0 0 8.6,-5.36 22.56,22.56 0 0 0 5.3,-8.6 36.29,36.29 0 0 0 1.92,-11.28 h -26.16 v -13.06 h 41.81 z"
     id="path4" />
  <path
     class="cls-1"
     d="m 664.12341,92.89849 h 17.19 v 98.23 h -17.19 z"
     id="path5" />
  <path
     class="cls-1"
     d="m 698.37341,92.89849 h 18.18 l 44.84,72.36 h 0.28 v -72.36 h 16.37 v 98.23 h -18.18 l -44.71,-72.23 h -0.41 v 72.23 h -16.37 z"
     id="path6" />
  <path
     class="cls-1"
     d="m 798.08341,92.89849 h 79.47 v 14.86 h -31.19 v 83.37 h -17.2 v -83.37 h -31.08 z"
     id="path7" />
  <path
     class="cls-1"
     d="m 927.55341,90.55849 a 45.66,45.66 0 0 1 19.74,4.13 44.26,44.26 0 0 1 14.79,11.14 49.62,49.62 0 0 1 9.28,16.37 62.58,62.58 0 0 1 0,39.75 49.42,49.42 0 0 1 -9.28,16.37 43.45,43.45 0 0 1 -14.79,11.08 50.11,50.11 0 0 1 -39.47,0 43.36,43.36 0 0 1 -14.79,-11.08 49.44,49.44 0 0 1 -9.29,-16.37 62.76,62.76 0 0 1 0,-39.75 49.64,49.64 0 0 1 9.29,-16.37 44.16,44.16 0 0 1 14.79,-11.14 45.64,45.64 0 0 1 19.73,-4.13 z m 0,14 a 27.56,27.56 0 0 0 -13.55,3.17 26.58,26.58 0 0 0 -9.28,8.46 38.12,38.12 0 0 0 -5.3,12 56.18,56.18 0 0 0 0,27.51 38.08,38.08 0 0 0 5.3,12 26.58,26.58 0 0 0 9.28,8.46 30.63,30.63 0 0 0 27.1,0 26.61,26.61 0 0 0 9.29,-8.46 38.06,38.06 0 0 0 5.29,-12 55.86,55.86 0 0 0 0,-27.51 38.1,38.1 0 0 0 -5.29,-12 26.61,26.61 0 0 0 -9.29,-8.46 27.5,27.5 0 0 0 -13.55,-3.14 z"
     id="path8" />
  <path
     class="cls-1"
     d="m 986.94341,92.89849 h 43.32999 q 10.46,0 17,3 a 27,27 0 0 1 10.18,7.56 25.78,25.78 0 0 1 4.89,9.91 42,42 0 0 1 1.3,9.9 41.26,41.26 0 0 1 -1.3,9.84 25.74,25.74 0 0 1 -4.89,9.83 26.27,26.27 0 0 1 -10.18,7.5 q -6.6,3 -17,3 h -26.14 v 37.69 h -17.18999 z m 17.18999,46.5 h 25.17 a 22.47,22.47 0 0 0 5.92,-0.83 16.89,16.89 0 0 0 5.57,-2.68 13.81,13.81 0 0 0 4.13,-5 17.1,17.1 0 0 0 1.63,-7.76 20,20 0 0 0 -1.38,-8 12.7,12.7 0 0 0 -3.71,-5 13.34,13.34 0 0 0 -5.37,-2.54 29,29 0 0 0 -6.46,-0.69 h -25.45 z"
     id="path9" />
  <path
     class="cls-1"
     d="m 100.74341,117.96849 41.39,63.68 a 7.64,7.64 0 0 1 -6.41,11.8 h -29.45 a 7.63,7.63 0 0 1 -6.510002,-3.63 l -38,-61.79 z"
     id="path10" />
  <path
     class="cls-1"
     d="m 132.19341,149.34849 14.36,21.12 a 7.65,7.65 0 0 0 13.05,-0.65 l 26.72,-49.34 -42.77,-2.51 -11.83,23.67 a 7.64,7.64 0 0 0 0.47,7.71 z"
     id="path11" />
  <path
     class="cls-1"
     d="m 233.71341,131.57849 -97.6,-83.000005 a 15.75,15.75 0 0 0 -20.42,0 L 18.093408,131.57849 c -6.15,5.23 -0.84,15.15 6.92,12.94 l 100.890002,-28.73 100.89,28.73 c 7.76,2.21 13.07,-7.71 6.92,-12.94 z"
     id="path12" />
</svg>
