<svg width="494" height="127" viewBox="0 0 494 127" fill="none" xmlns="http://www.w3.org/2000/svg">
<path d="M1011 159.782C965.186 159.782 994.265 158.463 939.47 171.781C828.298 197.141 762.404 150.176 703.805 125.43C660.596 107.704 619.349 101.403 602.802 102.927C544.359 113.588 506.684 199.866 426.058 159.455C355.33 120.976 330.811 58.1712 249.307 113.622C201.677 147.365 185.388 170.044 139.892 173.834C92.9803 177.129 71.0561 167.9 30.4739 159.997C24.8688 159.71 30.3498 159.782 1.01586 159.782" stroke="#1C6D7E" stroke-opacity="0.3" stroke-miterlimit="10"/>
<path d="M1011 159.782C975.191 159.853 990.133 158.24 952.092 168.44C908.4 179.736 887.946 178.812 838.463 175.924C759.557 169.246 710.048 112.798 615.426 100.353C556.856 94.1561 518.027 188.263 442.893 168.233C373.406 145.853 343.35 65.7526 266.147 104.758C183.958 149.872 192.487 194.137 47.3164 163.298C26.597 158.986 33.0105 159.79 1.02563 159.782" stroke="#1C6D7E" stroke-opacity="0.3" stroke-miterlimit="10"/>
<path d="M1011 159.781C961.851 159.903 979.261 164.2 926.836 173.876C898.717 178.599 883.776 177.707 855.293 176.81C828.31 176.127 814.428 175.541 783.764 164.804C732.111 145.771 646.332 90.4341 598.594 98.0775C540.234 112.573 502.394 201.451 421.845 161.467C377.242 137.332 354.209 102.835 312.429 96.5257C246.941 90.857 215.177 167.164 135.681 172.051C80.7516 174.747 49.7026 161.044 26.2668 159.823C20.691 159.782 25.5188 159.794 1.01782 159.782" stroke="#1C6D7E" stroke-opacity="0.3" stroke-miterlimit="10"/>
<path d="M1011 159.781C964.55 159.886 986.474 162.04 931.048 172.829C900.935 178.227 885.949 177.385 855.294 176.976C827.925 176.797 813.637 176.436 783.765 166.496C724.37 145.567 645.417 88.2869 598.602 95.2681C540.36 109.231 501.713 201.345 421.854 163.62C379.269 141.48 357.248 108.419 316.645 99.5167C250.438 89.1546 215.366 165.625 139.898 170.773C89.0229 173.675 66.2645 165.204 30.4739 160.07C24.7085 159.767 28.1333 159.789 1.01586 159.787" stroke="#1C6D7E" stroke-opacity="0.3" stroke-miterlimit="10"/>
<path d="M1011 159.781C965.178 159.92 987.364 161.935 931.047 172.56C897.683 178.369 881.261 176.831 851.089 177.196C824.799 177.706 808.037 176.364 779.546 166.774C713.673 143.145 640.643 82.7279 594.381 93.4351C534.352 112.649 496.855 206.89 413.427 161.378C370.996 136.374 347.93 102.301 304.013 100.606C263.667 101.505 236.762 129.578 194.597 153.595C168.509 167.681 156.881 169.333 127.265 170.294C67.7367 171.535 63.3398 159.789 1.01782 159.781" stroke="#1C6D7E" stroke-opacity="0.3" stroke-miterlimit="10"/>
<path d="M1011 159.781C959.52 159.98 958.112 172.166 897.379 176.269C880.398 177.198 873.757 176.889 855.294 177.312C827.622 178.162 812.894 178.547 783.765 169.886C709.788 146.17 642.688 79.8262 594.389 90.5952C535.987 108.968 497.047 203.817 417.644 165.917C375.114 143.503 352.763 107.839 308.228 103.07C268.044 101.185 241.17 127.031 198.814 151.14C171.317 166.1 159.364 167.991 131.482 169.106C67.3464 171.101 65.2039 159.793 1.02563 159.781" stroke="#1C6D7E" stroke-opacity="0.3" stroke-miterlimit="10"/>
<path d="M1011 159.782C961.815 159.935 958.814 170.936 901.589 175.651C882.317 176.997 874.933 176.648 855.293 177.432C827.664 178.777 812.792 179.626 783.764 171.52C709.087 148.781 646.549 81.4524 598.601 87.0454C540.136 99.6415 499.876 201.474 421.852 170.086C378.959 150.461 357.39 113.574 312.436 105.713C248.025 98.2692 217.276 164.088 135.681 167.786C67.0266 170.443 67.5833 159.77 1.01781 159.782" stroke="#1C6D7E" stroke-opacity="0.3" stroke-miterlimit="10"/>
<path d="M1011 159.781C952.551 159.99 971.872 172.644 863.716 177.11C837.305 178.375 822.867 181.594 792.173 175.239C714.713 157.088 658.734 89.2069 607.008 83.9789C546.682 84.0747 504.864 199.041 426.053 173.843C384.038 157.886 364.311 122.645 320.846 109.682C254.597 93.7567 217.257 161.68 144.099 166.248C63.7724 170.243 73.4521 159.741 1.01781 159.781" stroke="#1C6D7E" stroke-opacity="0.3" stroke-miterlimit="10"/>
<path d="M1011 159.781C963.125 159.98 964.978 169.018 905.793 174.629C886.123 176.29 878.486 176.149 859.504 177.359C833.774 179.258 818.494 182.382 787.96 175.811C708.122 156.324 652.93 81.9759 602.798 81.4174C544.023 87.0642 502.301 198.399 426.053 175.909C384.048 160.884 365.13 125.365 320.846 111.929C254.868 95.6751 217.878 160.914 144.099 165.126C62.3435 168.83 70.8685 159.717 1.01781 159.781" stroke="#1C6D7E" stroke-opacity="0.3" stroke-miterlimit="10"/>
<path d="M1011 159.782C964.102 160.009 966.138 168.582 905.793 174.293C885.253 176.046 878.856 175.87 859.504 177.408C834.3 179.698 818.349 183.334 787.96 177.372C708.908 159.472 657.817 85.5971 607.017 78.949C547.589 77.5428 505.624 194.426 430.27 179.114C387.87 167.656 369.675 131.705 325.063 115.475C259.015 95.1136 218.833 158.625 148.315 163.789C64.1861 168.129 72.3094 159.688 1.01781 159.782" stroke="#1C6D7E" stroke-opacity="0.3" stroke-miterlimit="10"/>
<path d="M1011 159.781C964.237 160.037 968.285 168.069 905.793 173.955C887.045 175.575 880.909 175.601 863.716 177.053C836.964 179.602 822.248 184.066 792.173 179.67C709.282 164.993 658.939 84.0131 607.008 76.4534C547.199 74.2793 505.473 194.336 430.262 181.076C387.808 170.652 370.479 134.461 325.055 117.738C259.184 97.09 219.484 158.004 148.306 162.68C59.8857 166.771 72.1232 159.66 1.01781 159.781" stroke="#1C6D7E" stroke-opacity="0.3" stroke-miterlimit="10"/>
<path d="M1011 159.781C975.867 160.001 981.793 162.45 939.468 169.447C904.166 174.951 886.747 174.458 859.509 177.426C808.63 183.691 779.879 189.101 724.846 153.646C652.692 105.338 625.584 55.0153 577.543 82.4415C527.797 114.858 490.812 192.252 430.255 183.069C378.64 171.558 356.254 112.399 291.388 115.309C239.3 120.128 207.679 157.853 148.306 161.385C51.4814 165.456 75.0344 159.606 1.01781 159.782" stroke="#1C6D7E" stroke-opacity="0.3" stroke-miterlimit="10"/>
<path d="M1011 159.781C966.89 160.098 970.08 167.334 905.795 173.268C884.028 175.157 876.302 175.341 859.506 177.413C810.702 184.165 780.441 191.84 724.843 155.315C677.008 122.537 646.682 82.9095 611.223 72.9483C572.811 66.2503 546.521 110.659 501.803 153.669C419.577 229.509 391.519 150.635 329.271 123.61C262.988 98.2922 222.737 154.433 152.517 159.871C63.0901 164.638 69.7036 159.529 1.01293 159.779" stroke="#1C6D7E" stroke-opacity="0.3" stroke-miterlimit="10"/>
<path d="M1011 159.781C967.841 160.127 971.729 166.902 905.793 172.926C883.994 174.821 875.711 175.17 859.504 177.394C835.64 181.058 820.304 186.119 792.173 183.667C708.365 173.531 663.856 86.5984 611.221 70.8907C550.817 59.4853 507.917 189.372 434.469 187.489C391.848 183.131 375.572 146.158 329.262 125.763C289.102 110.147 260.235 123.198 219.848 140.158C158.172 165.841 154.065 159.221 1.01781 159.782" stroke="#1C6D7E" stroke-opacity="0.3" stroke-miterlimit="10"/>
<path d="M1011 159.781C977.712 160.072 980.799 162.849 939.468 168.831C901.339 174.029 883.698 173.289 855.298 178.086C828.67 183.039 812.389 187.953 783.769 183.986C679.229 165.657 641.227 27.3196 569.148 81.7452C520.551 121.951 484.002 197.398 426.065 188.396C375.78 176.718 355.89 117.85 287.192 120.694C233.271 125.192 213.848 155.525 135.688 157.878C10.6131 162.448 105.216 159.438 1.01781 159.781" stroke="#1C6D7E" stroke-opacity="0.3" stroke-miterlimit="10"/>
<path d="M1011 159.781C976.784 160.114 979.94 163.372 935.251 169.174C897.382 173.823 879.77 173.175 851.089 178.974C792.831 191.54 762.613 190.977 712.213 150.6C640.226 90.5036 619.022 37.7475 564.923 83.1573C514.513 129 477.636 205.766 417.636 188.378C372.607 171.913 348.668 115.8 278.762 123.056C250.08 127.077 231.284 137.019 198.806 147.488C166.303 157.428 156.785 155.535 127.265 156.899C63.0485 160.334 108.81 159.374 1.01781 159.781" stroke="#1C6D7E" stroke-opacity="0.3" stroke-miterlimit="10"/>
<path d="M1011 159.782C968.303 160.243 995.396 163.624 888.967 173.396C821.747 179.926 786.097 209.834 716.435 155.348C669.83 117.273 641.213 72.1621 607.017 64.3052C567.517 60.1703 539.995 113.627 493.394 161.109C413.167 239.079 388.833 153.683 320.861 128.921C280.046 116.05 250.809 130.05 207.238 144.162C174.079 154.547 163.741 154.239 135.697 155.109C89.0025 157.012 112.65 159.274 1.01781 159.782" stroke="#1C6D7E" stroke-opacity="0.3" stroke-miterlimit="10"/>
<path d="M1011 159.782C979.077 160.161 980.937 163.065 939.468 168.247C901.453 172.713 882.895 172.27 855.298 178.051C830.792 183.688 812.656 190.491 783.769 187.92C680.491 174.57 643.569 24.4359 573.339 73.1549C523.298 112.367 485.491 200.301 426.053 194.802C376.775 186.131 358.451 126.41 287.18 125.291C259.218 125.939 239.378 133.983 207.223 143.611C171.544 153.932 160.473 152.869 135.681 153.67C93.7734 155.523 97.5205 159.273 1.01781 159.782" stroke="#1C6D7E" stroke-opacity="0.3" stroke-miterlimit="10"/>
<path d="M1011 159.782C979.833 160.193 980.123 163.242 939.468 168.055C917.858 170.463 909.133 170.802 888.967 172.761C821.952 179.798 785.503 214 716.435 158.094C667.515 116.588 638.609 65.0365 602.798 60.6025C563.52 60.9236 535.636 117.763 489.176 165.875C410.294 243.554 388.056 155.772 316.644 131.516C256.559 113.885 228.295 150.036 139.89 152.092C98.8511 153.489 91.5706 159.227 1.01781 159.782" stroke="#1C6D7E" stroke-opacity="0.3" stroke-miterlimit="10"/>
<path d="M1011 159.781C980.131 160.222 980.7 163.244 939.47 167.866C917.58 170.167 909.426 170.403 888.968 172.453C836.997 178.104 823.777 192.667 783.763 190.393C697.214 181.816 655.814 66.0554 602.804 58.9784C543.231 59.0443 498.738 202.903 426.059 199.12C385.419 193.447 372.498 155.501 320.852 134.964C260.034 113.564 231.167 148.562 139.897 150.65C100.254 152.046 82.4734 159.355 1.02465 159.789" stroke="#1C6D7E" stroke-opacity="0.3" stroke-miterlimit="10"/>
<path d="M1011 159.782C980.787 160.251 980.201 163.372 939.471 167.679C901.226 171.469 882.673 171.163 855.3 177.937C803.075 192.099 772.517 205.168 720.637 164.326C651.698 106.693 626.84 30.067 573.342 68.346C524.345 108.157 487.208 198.101 430.264 201.414C380.71 199.828 364.431 138.27 291.39 130.024C240.985 126.222 220.296 147.377 139.885 149.203C100.379 150.659 77.9614 159.323 1.01293 159.774" stroke="#1C6D7E" stroke-opacity="0.3" stroke-miterlimit="10"/>
<path d="M1011 159.781C979.628 160.318 980.318 163.697 935.251 167.913C913.104 169.866 903.02 170.217 884.749 172.313C837.63 178.357 822.982 193.554 783.755 192.459C696.601 186.162 656.14 64.3538 602.798 56.457C542.073 55.8945 496.162 210.914 421.845 203.105C382.959 195.495 369.563 157.519 316.637 137.451C276.649 124.009 247.053 133.512 203.013 142.145C164.724 149.325 156.799 146.732 131.474 148.21C94.2543 151.095 69.2707 159.32 1.01781 159.781" stroke="#1C6D7E" stroke-opacity="0.3" stroke-miterlimit="10"/>
<path d="M1011 159.781C980.969 160.336 981.233 163.425 939.468 167.361C916.419 169.389 907.754 169.565 888.967 171.534C838.014 177.482 824.232 193.937 783.762 193.335C696.337 188.087 656.281 63.7177 602.803 55.5057C542.194 54.7258 495.867 211.989 421.85 205.442C383.228 198.447 370.084 160.521 316.642 139.462C276.815 125.434 247.053 133.785 203.019 141.421C166.794 147.449 158.496 145.594 135.686 146.571C96.8018 149.022 70.572 159.257 1.01781 159.781" stroke="#1C6D7E" stroke-opacity="0.3" stroke-miterlimit="10"/>
<path d="M1011 159.781C981.076 160.38 981.697 163.456 939.468 167.201C904.192 170.116 885.415 170.05 859.509 176.459C812.627 189.364 776.836 213.03 720.635 167.682C653.587 109.957 629.143 30.0025 577.555 62.5929C527.892 99.364 488.6 201.1 430.267 207.99C381.565 209.127 366.444 147.909 291.393 134.647C245.19 128.081 225.405 142.737 139.888 144.991C98.97 146.852 71.6268 159.193 1.01781 159.782" stroke="#1C6D7E" stroke-opacity="0.3" stroke-miterlimit="10"/>
<path d="M1011 159.781C981.342 160.423 981.814 163.527 939.468 167.044C903.273 169.836 882.819 169.68 855.298 177.511C830.633 185.213 812.208 194.769 783.769 195.086C678.35 191.336 645.651 10.6961 573.351 64.8365C523.612 107.21 484.095 207.938 426.065 210.359C379.638 207.788 363.262 148.001 287.192 135.496C259.787 131.874 238.518 135.297 207.235 139.446C164.489 144.941 159.417 142.637 135.693 143.792C96.021 146.644 67.8522 159.173 1.01781 159.781" stroke="#1C6D7E" stroke-opacity="0.3" stroke-miterlimit="10"/>
<path d="M1011 159.782C981.448 160.468 982.028 163.597 939.468 166.89C915.29 168.626 907.099 168.686 888.967 170.646C838.983 176.786 824.47 194.949 783.762 195.906C698.314 193.872 659.382 69.9732 607.013 53.4895C546.556 43.2391 498.83 208.273 426.058 212.637C386.603 211.11 375.785 173.638 320.851 147.383C280.277 129.575 248.977 134.338 203.019 139.291C158.931 143.799 156.007 140.887 131.479 142.755C91.9136 146.765 64.3481 159.155 1.01781 159.782" stroke="#1C6D7E" stroke-opacity="0.3" stroke-miterlimit="10"/>
<path d="M1011 159.781C981.567 160.523 980.768 163.998 935.251 167.064C913.334 168.448 905.26 168.637 888.962 170.393C839.167 176.526 824.52 195.03 783.757 196.337C698.17 195.008 659.395 69.9548 607.017 53.4233C546.469 43.1848 498.842 209.404 426.061 214.989C386.873 214.079 376.273 176.979 320.854 149.7C286.179 133.943 258.891 134.2 219.851 137.334C145.238 143.619 155.678 139.041 127.268 142.075C88.6733 147.125 60.8078 159.143 1.01781 159.781" stroke="#1C6D7E" stroke-opacity="0.3" stroke-miterlimit="10"/>
<path d="M1011 159.781C981.312 160.591 982.474 163.725 939.468 166.669C905.867 168.785 885.642 168.677 859.509 175.794C808.909 191.153 775.663 216.441 720.635 171.242C653.916 112.532 629.648 26.6293 577.543 61.0148C528.474 98.9967 487.892 205.811 430.255 216.963C382.351 221.441 369.727 161.967 291.381 141.291C267.647 135.76 248.763 135.782 224.048 136.998C120.879 142.677 199.054 138.064 139.89 139.925C96.9931 142.366 68.533 159.003 1.01781 159.777" stroke="#1C6D7E" stroke-opacity="0.3" stroke-miterlimit="10"/>
<path d="M1011 159.781C981.671 160.637 982.386 163.808 939.468 166.563C917.141 167.871 906.951 167.959 888.967 169.892C839.22 176.045 824.88 195.176 783.757 197.196C697.902 197.264 659.485 69.9506 607.008 53.3093C546.787 43.1846 498.43 211.743 426.053 219.722C387.465 220.025 377.089 183.647 320.846 154.366C286.584 137.744 259.155 135.949 219.843 137.114C135.957 140.008 152.264 137.567 131.475 139.414C91.1122 144.153 63.0916 159.021 1.01781 159.781" stroke="#1C6D7E" stroke-opacity="0.3" stroke-miterlimit="10"/>
<path d="M1011 159.782C981.971 160.687 982.314 163.893 939.469 166.448C916.411 167.694 906.743 167.742 888.967 169.639C839.74 175.749 824.701 195.272 783.762 197.63C697.834 198.394 659.479 69.9134 607.017 53.2542C546.815 43.1693 498.346 212.917 426.062 222.088C368.376 223.444 366.275 136.403 219.857 137.001C131.021 137.879 139.956 136.917 123.066 139.45C83.9665 146.232 57.2972 159.058 1.03539 159.782" stroke="#1C6D7E" stroke-opacity="0.3" stroke-miterlimit="10"/>
<path d="M1011 159.781C982.904 160.714 981.672 164.014 939.47 166.345C915.705 167.532 906.697 167.512 888.968 169.389C839.501 175.521 825.072 195.282 783.763 197.98C697.666 199.396 659.569 70.0264 607.015 53.3692C545.842 43.2285 495.596 221.744 421.852 224.613C367.849 221.022 361.193 139.96 219.854 136.968C137.021 135.736 135.958 136.444 123.059 138.454C83.2968 145.635 57.2962 159.013 1.02758 159.781" stroke="#1C6D7E" stroke-opacity="0.3" stroke-miterlimit="10"/>
<path d="M1011 159.781C982.801 160.778 981.639 164.095 939.47 166.287C915.684 167.402 906.652 167.349 888.968 169.19C821.872 177.38 784.27 229.348 716.436 169.778C669.364 125.826 642.442 65.4028 607.018 54.4602C567.375 48.213 539.419 112.081 489.177 177.958C410.978 276.958 392.735 202.065 320.847 161.845C287.911 144.45 260.474 139.282 219.844 137.383C139.464 134.192 132.414 135.813 114.637 139.478C74.6496 148.434 51.9532 159.061 1.0139 159.781" stroke="#1C6D7E" stroke-opacity="0.3" stroke-miterlimit="10"/>
<path d="M1011 159.781C983.342 160.834 982.482 163.878 943.668 166.024C921.035 167.133 911.436 166.987 893.166 168.557C841.114 173.867 829.703 192.602 787.952 197.521C701.126 203.778 663.681 80.2846 611.221 56.8157C549.323 38.2238 499.877 216.353 426.053 229.11C372.01 232.78 362.452 149.325 224.056 138.105C213.542 137.345 148.734 133.059 123.053 137.216C82.548 144.825 57.3231 158.957 1.02172 159.781" stroke="#1C6D7E" stroke-opacity="0.3" stroke-miterlimit="10"/>
<path d="M1011 159.781C983.765 160.884 981.983 163.981 943.667 165.982C907.472 167.636 887.05 166.7 859.504 174.543C815.755 188.485 777.098 219.394 720.63 173.915C653.957 116.188 629.849 28.5058 577.543 65.3826C527.35 106.556 484.357 220.507 426.039 231.444C372.037 235.898 363.236 153.561 224.041 138.63C204.839 136.755 158.946 133.978 139.876 134.64C95.6918 137.582 67.1007 158.785 1.01781 159.781" stroke="#1C6D7E" stroke-opacity="0.3" stroke-miterlimit="10"/>
<path d="M1011 159.781C983.037 160.978 981.46 164.337 939.47 166.116C918.857 166.882 909.824 166.817 893.181 168.175C841.473 173.229 829.84 192.136 787.967 197.338C701.056 204.202 663.696 81.516 611.227 58.9307C549.669 41.4538 499.63 218.901 426.059 233.777C372.788 238.949 361.628 156.111 219.855 138.632C75.7479 122.227 103.339 158.202 1.02465 159.776" stroke="#1C6D7E" stroke-opacity="0.3" stroke-miterlimit="10"/>
<path d="M1011 159.782C981.269 161.13 982.603 164.369 939.468 166.067C918.77 166.771 909.769 166.675 893.179 167.988C840.587 173.006 830.647 191.76 787.966 197.157C700.977 204.23 663.663 82.2403 611.226 60.2215C549.793 43.3968 499.678 220.127 426.053 236.067C373.5 241.911 360.487 160.107 219.848 139.201C80.7378 119.889 102.727 158.17 1.01781 159.782" stroke="#1C6D7E" stroke-opacity="0.3" stroke-miterlimit="10"/>
<path d="M1011 159.781C982.691 161.135 981.524 164.478 939.468 166.05C915.023 166.828 906.622 166.602 888.967 168.214C839.155 173.717 826.176 193.494 783.762 196.883C697.506 199.693 659.587 74.9767 607.017 61.5349C546.894 55.1101 494.695 229.593 421.854 238.629C372.338 239.546 355.521 162.633 215.647 139.711C83.9437 119.427 101.988 158.197 1.01781 159.781" stroke="#1C6D7E" stroke-opacity="0.3" stroke-miterlimit="10"/>
<path d="M1011 159.782C982.041 161.246 981.629 164.553 939.468 166.035C916.003 166.727 906.761 166.484 888.967 168.042C839.001 173.359 826.426 192.927 783.762 196.268C697.592 199.008 659.494 76.4659 607.017 63.9975C547.146 58.584 494.536 230.763 421.854 240.722C374.493 242.244 352.75 166.721 215.647 140.801C87.696 117.934 101.28 158.224 1.01781 159.782" stroke="#1C6D7E" stroke-opacity="0.3" stroke-miterlimit="10"/>
<path d="M1011 159.781C982.595 161.29 981.192 164.637 939.468 166.02C916.226 166.65 906.813 166.375 888.967 167.867C837.566 173.119 827.465 192.289 783.757 195.652C697.659 198.323 659.485 77.9686 607.008 66.4616C547.199 62.0295 494.478 231.944 421.845 242.823C374.133 245.017 351.976 171.124 215.639 141.895C91.2638 116.625 100.523 158.251 1.01781 159.781" stroke="#1C6D7E" stroke-opacity="0.3" stroke-miterlimit="10"/>
<path d="M1011 159.781C982.75 161.359 980.924 164.722 939.468 166.005C917.301 166.557 907.006 166.258 888.967 167.694C839.058 172.597 826.755 191.797 783.762 195.037C697.72 197.64 659.468 79.4735 607.017 68.9278C547.511 65.4971 494.345 233.134 421.854 244.924C376.523 247.639 348.601 174.851 215.647 142.999C94.3922 115.373 100.128 158.276 1.01781 159.782" stroke="#1C6D7E" stroke-opacity="0.3" stroke-miterlimit="10"/>
<path d="M1011 159.781C982.912 161.421 980.618 164.802 939.468 165.991C917.487 166.487 909.995 166.19 893.179 167.199C840.61 171.153 831.497 188.999 787.966 194.005C698.625 200.542 660.467 81.3424 607.017 71.6664C547.801 69.3148 494.195 234.245 421.845 246.897C377.416 250.164 346.167 178.84 215.639 144.271C97.0707 114.318 100.216 158.303 1.01781 159.782" stroke="#1C6D7E" stroke-opacity="0.3" stroke-miterlimit="10"/>
<path d="M1011 159.781C983.248 161.471 980.145 164.881 939.468 165.986C918.475 166.421 910.167 166.11 893.179 167.028C840.575 170.68 831.647 188.145 787.966 192.874C698.835 198.89 660.405 83.7138 607.017 75.4979C547.98 74.5345 494.243 235.009 421.854 248.361C389.278 251.175 381.809 229.063 316.645 190.183C283.495 170.836 252.493 156.935 215.642 146.236C99.0562 113.867 101.204 158.383 1.01781 159.781" stroke="#1C6D7E" stroke-opacity="0.3" stroke-miterlimit="10"/>
<path d="M1011 159.781C983.165 161.546 981.368 164.622 943.667 165.875C924.089 166.371 915.047 166.016 897.378 166.654C842.03 169.339 836.335 185.169 792.173 191.314C702.754 200.392 664.454 93.4733 611.221 79.8759C551.172 72.2963 499.264 228.097 426.053 249.021C392.737 255.49 384.762 234.803 320.846 196.267C288.246 176.979 256.728 161.662 219.843 149.541C102.547 112.5 101.085 158.475 1.01781 159.781" stroke="#1C6D7E" stroke-opacity="0.3" stroke-miterlimit="10"/>
<path d="M1011 159.781C983.765 161.576 980.906 164.686 943.667 165.877C924.151 166.34 915.309 165.953 897.378 166.507C841.961 168.901 836.523 184.379 792.173 190.209C705.729 198.417 667.71 102.388 615.425 84.5436C554.538 70.8843 504.004 221.392 430.262 249.231C395.912 259.28 386.068 239.257 325.055 202.357C284.078 177.952 252.619 163.605 224.052 153.127C105.565 111.142 101.016 158.557 1.01781 159.781" stroke="#1C6D7E" stroke-opacity="0.3" stroke-miterlimit="10"/>
<path d="M1011 159.782C984.668 161.587 980.145 164.768 943.667 165.879C921.872 166.362 912.125 165.81 893.166 166.518C840.37 169.23 832.31 185.564 787.952 189.478C702.253 193.85 663.449 97.4175 611.212 87.3247C551.555 83.0522 499.35 229.941 426.044 251.882C393.64 258.805 387.101 241.909 316.628 200.953C119.212 87.5721 115.489 158.489 1.01781 159.782" stroke="#1C6D7E" stroke-opacity="0.3" stroke-miterlimit="10"/>
<path d="M1011 159.782C984.008 161.697 978.584 165.167 939.468 165.965C917.889 166.248 911.001 165.776 893.179 166.334C840.218 168.708 832.681 184.629 787.966 188.237C702.504 192.057 663.565 99.6595 611.221 91.278C551.803 88.7269 499.488 230.715 426.053 253.113C394.661 260.094 388.504 245.753 316.637 204.575C110.466 87.3287 123.924 158.529 1.01781 159.782" stroke="#1C6D7E" stroke-opacity="0.3" stroke-miterlimit="10"/>
<path d="M1011 159.781C983.898 161.75 978.249 165.199 939.468 165.923C904.824 166.304 885.832 164.477 859.509 169.788C816.284 179.907 780.068 202.899 720.635 168.687C653.037 127.159 627.924 68.1179 573.339 112.114C524.189 155.25 481.883 236.547 426.053 253.619C384.59 263.074 379.558 233.956 236.681 166.328C112.078 108.579 104.696 158.874 1.01782 159.781" stroke="#1C6D7E" stroke-opacity="0.3" stroke-miterlimit="10"/>
<path d="M1011 159.781C984.239 161.775 977.748 165.242 939.468 165.886C904.207 166.2 885.847 164.215 859.509 169.195C819.694 177.986 781.513 200.89 720.635 167.638C655.728 129.855 628.953 76.8818 577.555 113.894C529.11 152.335 486.766 231.558 430.262 252.849C400.936 261.852 387.592 250.636 354.513 232.406C153.181 122.717 164.741 131.455 55.7249 154.31C31.8875 159.029 20.61 159.639 1.01782 159.781" stroke="#1C6D7E" stroke-opacity="0.3" stroke-miterlimit="10"/>
<path d="M1011 159.782C983.815 161.858 977.482 165.277 939.468 165.849C917.88 165.995 907.744 165.295 888.967 165.69C836.914 167.509 830.633 182.562 783.762 183.422C700.314 182.211 659.633 102.685 607.017 105.751C549.276 115.104 494.69 238.231 421.845 255.664C398.306 259.587 392.965 256.304 299.804 206.795C265.375 188.289 251.464 180.185 228.264 168.594C113.516 112.425 104.651 159.195 1.01782 159.782" stroke="#1C6D7E" stroke-opacity="0.3" stroke-miterlimit="10"/>
<path d="M1011 159.781C984.49 161.858 976.906 165.318 939.47 165.813C919.457 165.907 912.064 165.316 893.181 165.358C824.564 166.25 795.108 201.842 720.636 165.538C671.548 140.174 643.548 107.27 607.018 110.637C549.021 121.642 495.313 238.206 421.855 256.202C402.223 259.673 392.852 260.628 291.397 206.188C201.081 157.262 168.677 132.006 93.6091 146.862C55.3968 154.755 40.6945 159.612 1.02758 159.781" stroke="#1C6D7E" stroke-opacity="0.3" stroke-miterlimit="10"/>
<path d="M1011 159.781C984.061 161.93 976.636 165.336 939.47 165.765C904.225 165.849 886.019 163.39 859.51 167.383C821.72 174.193 784.418 193.541 720.636 164.391C655.107 132.724 628.735 93.8487 577.545 129.509C528.331 166.623 484.182 237.446 426.04 255.414C400.484 261.797 391.08 257.311 329.249 228.995C226.523 181.216 186.587 132.778 102.003 146.084C62.6808 152.83 46.7616 159.648 0.999996 159.781" stroke="#1C6D7E" stroke-opacity="0.3" stroke-miterlimit="10"/>
<path d="M1011 159.781C984.193 161.931 976.123 165.324 939.469 165.642C902.489 165.624 883.328 162.678 855.299 167.275C811.076 175.752 778.891 188.933 716.431 161.058C651.848 130.993 626.07 99.3658 573.345 138.12C522.978 177.558 476.546 245.335 417.642 256.697C398.634 259.198 389.98 257.548 329.268 232.031C230.872 189.725 190.151 136.382 106.234 146.541C65.8256 152.126 49.9254 159.726 1.02856 159.773" stroke="#1C6D7E" stroke-opacity="0.3" stroke-miterlimit="10"/>
<path d="M1011 159.781C960.652 163.85 990.129 166.589 893.174 164.351C838.836 163.553 835.411 175.706 787.96 175.856C704.995 174.045 661.927 115.311 607.017 126.249C550.403 141.869 496.15 236.597 421.854 255.32C397.741 260.137 385.658 255.582 337.687 238.254C238.811 201.539 196.3 142.027 114.653 146.9C73.9072 150.233 54.9476 159.823 1.01782 159.781" stroke="#1C6D7E" stroke-opacity="0.3" stroke-miterlimit="10"/>
<path d="M1011 159.781C961.05 163.843 984.87 166.906 893.174 163.984C826.254 162.361 804.045 188.612 724.841 161.531C676.306 144.189 648.328 124.347 611.221 130.568C573.396 139.476 543.933 175.828 493.385 216.05C420.796 272.347 394.168 258.007 346.095 243.61C274.095 221.41 244.764 190.952 190.39 164.569C115.992 130.083 88.7301 160.001 1.01782 159.782" stroke="#1C6D7E" stroke-opacity="0.3" stroke-miterlimit="10"/>
<path d="M1011 159.781C969.506 161.049 950.77 163.985 901.589 156.19C795.317 138.656 864.168 154.435 775.342 135.165C679.084 115.105 659.032 158.291 602.797 195.501C536.301 236.838 485.701 208.308 421.845 221.728C376.573 232.758 354.108 258.429 316.637 266.528C273.483 273.509 242.484 245.905 203.013 214.492C130.757 157.814 82.7889 160.441 1.01782 159.781" stroke="#1C6D7E" stroke-opacity="0.3" stroke-miterlimit="10"/>
<path d="M1011 159.781C972.51 160.686 951.177 163.692 901.589 155.456C879.072 151.565 872.884 149.911 855.293 147.584C777.826 138.255 752.092 118.887 703.799 130.911C656.879 144.608 635.58 177.174 598.594 200.585C532.797 238.968 481.573 203.906 417.636 219.496C373.281 232.063 351.329 260.412 312.429 268.333C245.678 278.015 213.426 204.551 131.475 174.972C83.387 158.351 56.5298 160.15 1.01782 159.781" stroke="#1C6D7E" stroke-opacity="0.3" stroke-miterlimit="10"/>
<path d="M1011 159.781C968.801 160.436 949.064 162.885 901.589 154.685C773.832 131.685 868.23 152.168 775.342 130.163C676.006 107.823 654.2 166.699 598.594 202.437C535.013 239.794 484.581 202.389 421.845 215.061C377.335 225.913 355.645 256.226 316.637 268.05C276.78 277.794 247.434 254.989 215.634 229.354C138.461 166.653 105.699 160.432 1.01782 159.781" stroke="#1C6D7E" stroke-opacity="0.3" stroke-miterlimit="10"/>
<path d="M1011 159.782C972.782 160.003 949.758 162.445 901.589 153.846C765.731 128.6 858.475 148.387 775.342 127.958C676.561 104.944 652.406 168.201 598.594 203.155C533.821 241.359 481.859 196.773 417.636 212.413C373.993 225.1 352.412 257.772 312.429 269.142C247.222 283.625 212.6 210.027 135.681 179.02C84.4642 159.074 60.7268 160.051 1.01782 159.782" stroke="#1C6D7E" stroke-opacity="0.3" stroke-miterlimit="10"/>
<path d="M1011 159.781C959.162 159.568 929.628 165.067 775.342 125.735C676.247 101.853 653.227 167.991 598.594 203.841C535.755 241.059 484.972 195.342 421.845 207.679C377.421 218.498 356.693 252.374 316.637 267.805C276.649 280.77 247.289 258.454 215.634 232.875C141.686 172.384 107.235 160.031 1.01782 159.781" stroke="#1C6D7E" stroke-opacity="0.3" stroke-miterlimit="10"/>
<path d="M1011 159.781C940.083 158.784 937.623 163.924 771.132 122.469C672.981 99.7126 650.106 173.911 594.383 207.042C531.77 240.185 480.671 189.667 417.638 205.007C374.457 217.837 353.286 254.349 312.432 269.209C246.936 288.776 215.245 214.304 131.478 179.516C81.4656 159.33 57.9316 159.769 1.02172 159.781" stroke="#1C6D7E" stroke-opacity="0.3" stroke-miterlimit="10"/>
<path d="M1011 159.781C898.854 157.122 925.78 154.196 851.089 140.792C782.548 128.784 753.616 104.131 703.799 121.211C641.651 145.731 624.236 208.069 564.923 217.689C513.053 223.511 473.171 190.61 421.845 200.294C363.76 214.42 338.682 281.332 278.762 272.414C228.566 261.613 201.219 211.193 135.681 182.388C82.9337 159.795 59.5806 159.593 1.01782 159.781" stroke="#1C6D7E" stroke-opacity="0.3" stroke-miterlimit="10"/>
<path d="M1011 159.781C899.357 155.926 927.09 153.929 851.089 139.6C783.047 127.003 753.566 101.67 703.799 119.318C640.76 145.019 624.461 208.975 564.923 217.454C511.752 222.253 470.265 184.722 417.636 197.508C361.447 214.54 335.469 283.993 274.555 272.329C224.431 259.403 201.971 212.498 131.475 181.485C81.0463 159.827 57.5502 159.446 1.01782 159.781" stroke="#1C6D7E" stroke-opacity="0.3" stroke-miterlimit="10"/>
<path d="M1011 159.781C897.225 154.457 929.709 153.627 842.673 136.892C784.257 125.124 750.5 98.3083 699.586 119.258C637.044 148.437 621.926 212.146 560.719 216.556C508.903 217.677 468.736 181.102 417.636 193.496C361.371 210.65 335.681 282.686 274.555 272.484C225.241 260.915 201.647 213.6 131.474 182.101C80.9843 159.929 57.8398 159.25 1.01782 159.781" stroke="#1C6D7E" stroke-opacity="0.3" stroke-miterlimit="10"/>
<path d="M1011 159.781C896.253 153 930.997 153.257 842.673 135.742C784.305 123.587 750.536 96.3261 699.586 117.483C636.685 147.106 621.773 211.983 560.719 215.28C509.032 215.386 468.751 177.105 417.636 189.488C361.324 206.759 335.901 281.374 274.555 272.648C224.069 261.969 204.477 215.484 127.265 180.833C79.1676 159.76 55.2423 159.042 1.01782 159.782" stroke="#1C6D7E" stroke-opacity="0.3" stroke-miterlimit="10"/>
<path d="M1011 159.781C898.066 151.715 930.132 152.601 842.673 134.593C784.375 122.041 750.539 94.3572 699.586 115.706C636.373 145.753 621.624 211.813 560.719 214.003C509.034 213.088 468.81 173.113 417.636 185.48C362.738 202.423 337.896 275.947 278.762 273.304C228.588 267.402 203.936 217.185 131.474 183.346C80.8016 160.112 57.8777 158.804 1.01782 159.781" stroke="#1C6D7E" stroke-opacity="0.3" stroke-miterlimit="10"/>
<path d="M1011 159.782C912.105 151.506 940.847 155.238 838.465 132.507C782.448 119.177 746.953 91.2183 695.386 115.952C632.945 149.374 619.048 214.896 556.512 212.574C504.707 208.01 464.394 166.965 413.431 182.78C360.013 203.193 334.557 278.542 274.558 272.973C225.868 264.917 203.057 218.033 131.477 183.961C80.7723 160.235 58.1655 158.603 1.01782 159.782" stroke="#1C6D7E" stroke-opacity="0.3" stroke-miterlimit="10"/>
<path d="M1011 159.781C947.429 153.634 944.347 157.096 834.259 130.43C803.912 122.531 786.328 113.131 758.504 106.979C664.759 89.0834 639.708 188.454 581.764 208.275C519.404 224.806 468.327 152.994 405.012 182.227C364.842 203.921 343.059 252.364 299.805 269.608C259.75 282.451 231.568 255.247 190.391 221.591C166.466 202.339 156.448 196.022 123.059 180.446C76.997 159.518 53.425 158.505 1.02758 159.781" stroke="#1C6D7E" stroke-opacity="0.3" stroke-miterlimit="10"/>
<path d="M1011 159.781C951.599 153.187 944.153 156.184 834.258 129.552C803.776 121.613 786.43 112.271 758.502 105.988C664.284 87.587 639.203 186.996 581.763 206.118C519.518 221.996 468.35 148.513 405.011 177.968C364.717 199.909 343.182 249.46 299.804 268.147C258.682 282.618 228.75 253.208 190.39 221.952C166.306 202.604 156.397 196.355 123.057 180.607C77.182 159.492 53.8031 158.303 1.01782 159.781" stroke="#1C6D7E" stroke-opacity="0.3" stroke-miterlimit="10"/>
<path d="M1011 159.783C942.256 151.182 948.074 154.995 867.92 136.122C847.273 131.411 844.96 131.461 830.046 127.575C800.417 119.288 781.745 109.624 754.299 104.152C661.119 88.632 637.18 190.39 577.543 204.997C515.383 215.604 464.117 141.244 400.804 176.029C360.309 201.6 337.101 255.735 291.388 269.577C250.095 278.753 221.909 246.24 177.764 212.399C166.308 203.898 150.742 192.569 110.432 175.086C70.379 158.51 46.1158 158.351 1.01782 159.783" stroke="#1C6D7E" stroke-opacity="0.3" stroke-miterlimit="10"/>
<path d="M1011 159.782C918.253 146.867 955.62 155.051 863.716 134.261C771.03 113.871 741.065 81.1554 682.755 117.079C633.46 150.19 619.423 192.963 577.55 202.798C537.916 209.107 507.701 182.331 463.927 167.374C370.922 138.784 358.96 251.386 287.18 269.435C229.548 279.241 211.301 217.499 106.223 173.407C67.8108 158.128 43.2271 158.276 1.01782 159.782" stroke="#1C6D7E" stroke-opacity="0.3" stroke-miterlimit="10"/>
<path d="M1011 159.782C785.008 125.121 802.234 110.568 750.088 101.385C659.737 88.5911 635.21 187.645 577.555 200.6C514.036 209.995 461.593 128.36 396.6 170.255C356.867 199.301 333.359 255.394 287.186 268.358C247.808 276.169 220.836 246.163 177.77 213.134C167.306 205.355 151.281 193.447 110.437 175.26C70.2497 158.172 45.7711 158.022 1.01782 159.782" stroke="#1C6D7E" stroke-opacity="0.3" stroke-miterlimit="10"/>
<path d="M1011 159.775C942.156 148.308 973.853 156.748 863.716 132.527C788.202 116.37 784.574 105.751 745.884 100.078C656.084 90.2166 633.391 190.485 573.339 198.691C511.157 202.634 459.947 124.804 396.595 165.931C356.759 195.302 333.454 252.646 287.18 267.001C247.893 275.909 220.784 246.281 177.764 213.322C167.266 205.513 150.997 193.477 110.432 175.24C70.1549 157.946 45.9469 157.863 1.01782 159.78" stroke="#1C6D7E" stroke-opacity="0.3" stroke-miterlimit="10"/>
<path d="M1011 159.762C1009.34 159.465 865.781 136.971 809.004 118.226C744.043 96.1491 713.818 85.396 661.714 128.127C608.668 174.068 597.901 218.041 522.843 183.335C461.943 153.912 428.797 127.321 379.762 176.09C331.529 227.59 303.463 292.469 236.681 256.911C193.751 231.916 171.892 196.473 93.5993 168.419C60.1184 157.305 37.0221 158.132 1.01782 159.774" stroke="#1C6D7E" stroke-opacity="0.3" stroke-miterlimit="10"/>
<path d="M1011 159.748C981.274 154.075 962.034 151.37 926.836 144.437C889.219 136.885 886.504 135.391 846.877 127.78C774.387 113.442 735.379 74.2718 670.128 119.923C621.523 156.369 610.238 194.253 564.923 192.889C502.827 186.973 451.764 110.626 388.178 163.619C351.791 197.139 327.704 252.01 282.971 264.728C228.426 275.632 204.22 215.504 106.223 173.092C67.8073 157.342 43.7442 157.689 1.01782 159.77" stroke="#1C6D7E" stroke-opacity="0.3" stroke-miterlimit="10"/>
<path d="M1011 159.734C833.639 123.733 841.568 128.155 804.8 116.145C763.425 102.368 734.305 90.3085 695.382 104.586C613.729 138.748 616.959 224.152 518.634 173.999C477.356 152.292 447.067 130.55 409.218 145.366C347.625 174.731 320.903 297.771 236.686 255.779C194.89 232.775 194.194 216.423 123.063 180.721C76.908 158.124 53.7945 157.039 1.01782 159.766" stroke="#1C6D7E" stroke-opacity="0.3" stroke-miterlimit="10"/>
<path d="M1011 159.72C807.796 116.019 851.737 131.452 787.964 110.253C750.074 97.7744 722.793 91.1403 686.971 107.245C655.667 122.895 637.866 144.983 615.428 166.286C539.643 234.13 482.176 106.07 405.011 142.885C344.14 177.323 318.378 298.898 232.478 252.965C200.111 234.092 134.335 168.329 55.7249 159.491C36.0431 157.745 21.2856 158.653 1.01782 159.762" stroke="#1C6D7E" stroke-opacity="0.3" stroke-miterlimit="10"/>
<path d="M1011 159.705C799.109 112.033 870.555 136.402 779.549 107.583C740.705 95.5896 713.923 92.0252 678.555 110.575C645.117 129.742 630.604 151.653 607.012 170.813C534.133 223.617 473.421 92.9947 396.598 143.531C367.516 165.396 353.256 197.37 320.846 232.874C230.184 326.05 190.916 164.742 43.0995 158.506C27.6354 158.151 17.816 158.792 1.01782 159.759" stroke="#1C6D7E" stroke-opacity="0.3" stroke-miterlimit="10"/>
<path d="M1011 159.686C955.829 146.691 895.629 133.257 846.877 125.657C758.994 111.42 720.245 61.4181 632.256 144.929C608.825 167.616 593.771 184.695 560.726 179.836C534.567 174.404 516.947 161.072 484.976 143.571C409.411 103.653 387.611 141.652 341.894 203.767C295.199 265.8 266.585 278.321 207.229 235.005C103.288 157.193 72.0836 155.463 1.01782 159.754" stroke="#1C6D7E" stroke-opacity="0.3" stroke-miterlimit="10"/>
<path d="M1011 159.671C867.108 124.416 865.578 129.308 830.051 122.415C763.218 108.209 721.211 74.8549 653.297 124.623C610.79 157.622 598.859 189.736 548.092 173.055C508.087 158.035 478.803 127.737 438.676 122.79C358.127 117.863 339.474 259.443 261.93 259.223C209.817 254.917 176.842 191.689 85.183 164.322C54.8062 156.144 33.3784 157.74 1.01782 159.757" stroke="#1C6D7E" stroke-opacity="0.3" stroke-miterlimit="10"/>
<path d="M1011 159.65C846.425 117.368 864.204 131.149 813.215 118.473C754.454 103.114 719.225 84.4504 665.924 114.655C608.74 149.573 601.887 197.443 531.259 162.066C478.248 134.029 438.092 94.2481 388.178 136.668C342.089 180.448 312.012 273.747 245.097 254.862C201.409 239.619 181.794 202.268 102.016 169.723C64.667 155.483 40.4693 157.185 1.01782 159.748" stroke="#1C6D7E" stroke-opacity="0.3" stroke-miterlimit="10"/>
<path d="M1011 159.632C857.426 118.454 870.181 130.356 821.632 120.449C766.106 108.236 727.65 85.6247 674.342 109.114C610.321 140.23 606.36 194.572 535.466 160.535C482.698 133.456 442.538 90.8427 392.388 128.555C344.484 169.328 315.737 267.553 249.307 254.874C204.587 243.135 183.398 202.435 102.017 169.378C64.6682 155.216 40.4189 157.079 1.01391 159.749" stroke="#1C6D7E" stroke-opacity="0.3" stroke-miterlimit="10"/>
<path d="M1011 159.617C869.385 120.67 879.089 129.564 830.051 122.048C772.701 112.253 735.242 88.4569 682.761 105.116C626.764 125.376 617.684 164.269 577.543 168.212C538.002 168.869 507.556 135.462 463.92 116.412C369.975 79.2237 357.898 205.173 287.173 247.557C231.406 275.919 205.452 215.399 110.432 172.457C69.7947 155.042 45.7539 156.578 1.01782 159.741" stroke="#1C6D7E" stroke-opacity="0.3" stroke-miterlimit="10"/>
<path d="M1011 159.608C923.298 134.799 921.495 131.946 838.462 123.218C807.361 119.492 789.5 112.87 758.502 105.589C650.183 81.4541 631.571 152.038 585.97 164.108C524.012 174.831 471.121 80.6722 405.011 111.601C361.662 135.808 342.034 202.381 295.597 239.707C259.189 265.735 232.74 250.876 194.594 222.782C97.8307 150.76 59.7512 155.415 1.01782 159.742" stroke="#1C6D7E" stroke-opacity="0.3" stroke-miterlimit="10"/>
<path d="M1011 159.597C935.392 137.592 919.097 129.598 842.673 123.54C781.976 118.139 746.292 95.324 695.382 102.026C621.035 114.592 617.081 172.772 560.719 160.19C509.847 145.746 469.725 91.4246 417.636 102.545C358.634 119.91 339.102 219.259 278.762 247.445C230.812 265.462 202.507 219.177 135.681 183.748C82.3769 155.915 62.0626 155.061 1.01782 159.739" stroke="#1C6D7E" stroke-opacity="0.3" stroke-miterlimit="10"/>
<path d="M1011 159.588C967.227 146.507 930.633 132.509 880.552 126.337C826.948 120.373 848.65 128.701 762.72 108.639C739.019 103.254 719.735 99.719 695.388 102.206C640.377 109.786 623.631 143.062 594.385 155.862C533.816 176.301 483.238 84.4142 417.636 98.3029C367.454 112.985 352.484 177.392 304.013 227.264C243.72 284.199 211.933 222.088 127.265 178.82C78.2265 154.384 55.8593 155.417 1.01782 159.74" stroke="#1C6D7E" stroke-opacity="0.3" stroke-miterlimit="10"/>
<path d="M1011 159.578C967.672 146.28 932.855 132.212 884.751 126.158C836.306 120.683 844.743 128.484 762.72 109.67C739.083 104.397 719.696 100.627 695.388 102.392C639.238 108.376 623.903 140.5 594.385 153.056C533.886 172.725 483.333 80.2795 417.64 94.0625C368.862 108.24 355.092 166.867 308.224 220.165C245.923 285.932 212.847 222.687 131.475 180.394C80.2724 154.316 58.998 154.991 1.01782 159.738" stroke="#1C6D7E" stroke-opacity="0.3" stroke-miterlimit="10"/>
<path d="M1011 159.574C966.862 145.738 932.807 131.151 884.751 125.52C841.571 121.08 838.06 127.092 779.546 114.549C744.45 106.81 723.301 101.526 695.382 102.735C634.841 107.289 622.874 141.453 590.177 151.682C529.8 164.659 478.764 72.4228 413.427 91.3359C365.797 109.126 351.278 171.03 304.013 222.058C243.456 282.28 211.54 220.297 127.265 177.578C78.5609 153.561 56.2661 155.029 1.01781 159.738" stroke="#1C6D7E" stroke-opacity="0.3" stroke-miterlimit="10"/>
<path d="M1011 159.578C950.198 140.164 920.411 124.526 855.293 123.403C777.433 122.544 750.958 103.886 699.586 103.178C616.803 104.335 617.969 163.198 560.719 147.658C510.147 130.903 469.885 75.6078 417.636 86.4646C356.347 104.149 337.12 212.504 274.555 241.448C228.106 258.618 200.128 214.923 135.681 181.114C82.651 153.81 62.3418 154.286 1.01781 159.74" stroke="#1C6D7E" stroke-opacity="0.3" stroke-miterlimit="10"/>
<path d="M1011 159.579C967.391 145.417 936.952 131.22 893.174 125.272C850.164 120.197 840.365 127.206 787.96 118.33C753.347 112.119 732.95 105.864 703.799 103.969C641.268 101.412 626.716 129.803 598.594 143.582C538.292 167.023 488.099 73.3712 421.845 81.9482C371.842 92.2983 359.173 147.552 312.429 207.381C247.436 285.533 213.002 219.909 131.475 178.175C80.219 152.544 58.443 154.419 1.01781 159.739" stroke="#1C6D7E" stroke-opacity="0.3" stroke-miterlimit="10"/>
<path d="M1011 159.584C964.514 144.225 934.577 129.23 888.967 124.161C846.015 120.204 836.8 127.853 779.551 117.914C745.999 111.801 727.069 106.293 699.586 104.42C639.421 101.742 625.942 128.007 598.594 141.066C538.323 163.761 488.206 69.7657 421.845 78.3008C371.688 88.637 359.161 143.972 312.429 204.761C247.794 283.838 212.519 219.505 135.681 179.552C81.7547 152.092 61.2008 153.973 1.01781 159.742" stroke="#1C6D7E" stroke-opacity="0.3" stroke-miterlimit="10"/>
<path d="M1011 159.588C963.678 143.691 934.496 128.284 888.967 123.545C847.256 120.043 835.494 127.987 779.551 119.037C745.284 113.211 724.315 106.87 695.388 104.738C633.667 101.634 624.505 129.108 594.385 140.081C534.281 155.968 483.75 61.9349 417.636 75.5184C368.093 89.6803 355.804 148.169 308.22 207.364C245.286 280.513 211.726 217.261 131.475 176.626C80.3827 151.444 58.5671 154.001 1.01781 159.742" stroke="#1C6D7E" stroke-opacity="0.3" stroke-miterlimit="10"/>
<path d="M1011 159.598C963.995 143.617 936.585 128.629 893.174 123.409C850.579 119.221 837.814 128.067 783.757 120.768C750.024 115.828 729.056 109.281 699.586 105.717C637.008 99.3501 626.597 123.493 598.594 136.185C536.999 157.909 485.675 58.3224 417.636 72.3068C367.864 86.5346 356.104 144.668 308.22 205.034C245.154 279.372 211.504 215.968 131.474 175.767C80.4569 150.83 58.4327 153.76 1.01781 159.744" stroke="#1C6D7E" stroke-opacity="0.3" stroke-miterlimit="10"/>
<path d="M1011 159.616C951.625 139.241 921.574 119.448 859.504 122.229C776.499 126.96 773.655 119.111 708.01 107.714C613.961 92.6243 623.512 142.323 573.339 136.636C522.026 126.96 480.868 65.0624 426.053 68.0803C359.475 76.6832 344.812 181.888 282.98 227.29C233.201 259.075 201.816 211.455 139.899 179.056C83.7162 150.393 63.6966 153.03 1.01781 159.748" stroke="#1C6D7E" stroke-opacity="0.3" stroke-miterlimit="10"/>
<path d="M1011 159.632C950.42 138.674 921.29 118.468 859.504 122.023C773.896 128.072 773.039 120.501 703.799 107.861C610.364 91.9816 622.09 143.802 569.136 133.342C517.636 119.623 476.444 58.6851 421.845 65.81C356.909 79.2698 341.525 187.399 278.762 228.183C230.224 255.063 200.818 208.911 135.681 175.94C82.1546 149.551 61.3249 153.021 1.01781 159.749" stroke="#1C6D7E" stroke-opacity="0.3" stroke-miterlimit="10"/>
<path d="M1011 159.65C963.015 142.895 938.11 127.846 897.378 122.35C856.203 117.833 841.423 127.578 792.173 124.63C761.698 122.325 741.834 116.945 712.213 110.433C652.039 97.5671 639.072 105.861 611.221 123.198C547.792 159.888 502.482 67.7653 434.469 62.2501C381.594 61.546 363.974 113.911 325.055 174.905C227.234 322.648 192.758 147.978 47.3086 154.821C32.115 155.819 28.4799 156.574 1.01781 159.756" stroke="#1C6D7E" stroke-opacity="0.3" stroke-miterlimit="10"/>
<path d="M1011 159.672C948.209 137.573 920.905 116.516 859.504 121.614C796.653 127.77 790.825 129.822 708.01 110.444C685.018 105.216 663.553 100.936 640.67 106.349C611.245 115.501 605.604 133.785 573.339 129.226C523.493 118.475 483.807 60.0118 430.262 59.3715C361.536 63.4246 348.294 165.656 287.18 218.514C236.219 257.694 203.398 209.643 144.099 178.236C86.1103 148.538 67.1696 151.799 1.01781 159.756" stroke="#1C6D7E" stroke-opacity="0.3" stroke-miterlimit="10"/>
<path d="M1011 159.688C947.721 137.348 920.671 115.688 859.504 121.421C796.52 128.299 785.734 130.892 708.01 111.286C685.258 105.667 663.503 100.537 640.67 105.185C611.264 113.397 605.821 131.849 573.339 126.998C523.595 115.886 483.835 57.529 430.262 57.0263C361.404 61.225 348.289 163.462 287.18 216.741C236.176 256.314 203.331 208.24 144.099 177.139C85.9362 147.617 66.8404 151.508 1.01781 159.76" stroke="#1C6D7E" stroke-opacity="0.3" stroke-miterlimit="10"/>
<path d="M1011 159.707C949.202 137.93 921.553 116.025 863.716 120.812C818.784 125.423 795.313 134.916 720.63 115.454C692.096 107.875 666.421 99.7206 640.67 104.175C610.516 111.71 604.357 132.113 569.141 124.029C519.299 109.245 479.427 51.961 426.053 55.3519C358.634 64.5711 345.024 169.974 282.971 218.314C232.939 252.458 201.197 204.593 139.89 173.819C83.78 146.543 63.8655 151.525 1.01781 159.763" stroke="#1C6D7E" stroke-opacity="0.3" stroke-miterlimit="10"/>
<path d="M1011 159.729C946.049 136.791 919.928 114.341 859.504 121.063C805.157 128.065 784.453 134.102 716.426 115.265C688.245 107.348 661.9 98.4821 636.466 104.095C608.942 112.472 600.905 131.611 564.923 120.73C514.958 102.533 474.965 46.6396 421.845 54.0297C356.176 68.1078 341.698 176.393 278.762 219.549C229.812 248.377 199.67 201.381 135.681 170.658C81.8823 145.639 60.8199 151.591 1.01781 159.769" stroke="#1C6D7E" stroke-opacity="0.3" stroke-miterlimit="10"/>
<path d="M1011 159.75C945.599 136.734 919.807 113.64 859.504 120.886C810.571 127.668 785.756 135.647 720.63 117.408C688.004 107.989 668.56 100.639 644.883 101.678C612.227 105.336 608.294 126.92 573.339 120.976C523.605 108.93 484.028 51.2436 430.262 51.2177C359.323 56.1225 346.15 165.333 282.971 214.977C232.842 249.516 201.007 201.478 139.89 171.494C83.7541 144.886 63.9551 150.812 1.01781 159.774" stroke="#1C6D7E" stroke-opacity="0.3" stroke-miterlimit="10"/>
<path d="M1011 159.771C946.692 137.22 921 114.06 863.716 120.166C823.255 125.384 791.497 138.193 724.841 119.607C689.965 109.486 670.049 100.475 644.883 100.794C612.982 103.387 610.368 122.99 577.55 119.721C527.738 110.916 488.871 52.7689 434.469 49.2783C361.826 49.4777 349.709 154.637 287.18 209.984C236.026 250.347 202.938 202.037 144.099 172.379C84.6159 143.539 64.1792 150.424 1.01781 159.779" stroke="#1C6D7E" stroke-opacity="0.3" stroke-miterlimit="10"/>
<path d="M1011 159.781C957.616 141.307 935.056 123.617 893.174 119.29C837.133 115.349 808.489 145.328 720.63 119.268C658.989 100.254 649.1 91.555 611.221 111.378C545.945 143.491 500.405 47.4656 430.262 47.8286C375.71 51.8578 362.503 106.64 316.637 174.338C223.093 305.835 191.264 131.982 38.8922 153.608C21.3529 156.305 22.518 156.504 1.01781 159.782" stroke="#1C6D7E" stroke-opacity="0.3" stroke-miterlimit="10"/>
<path d="M1011 159.782C945.753 137.673 919.85 112.052 859.504 120.402C811.648 128.027 783.517 138.952 720.63 120.059C685.687 109.088 665.319 99.149 640.67 99.9767C611.498 103.306 606.796 122.372 573.339 116.069C522.369 102.859 481.406 42.8125 426.053 47.0132C356.962 57.1759 342.47 169.059 278.762 212.895C229.55 242.017 199.337 194.666 135.681 165.87C80.531 141.858 58.5051 150.696 1.01781 159.782" stroke="#1C6D7E" stroke-opacity="0.3" stroke-miterlimit="10"/>
<path d="M1011 159.782C959.99 142.957 938.062 125.193 897.378 119.404C838.776 113.022 807.923 147.445 720.63 120.855C659.787 101.427 649.705 90.217 611.221 109.379C545.877 140.035 500.576 44.8829 430.262 45.5651C375.66 49.8137 362.6 104.044 316.637 171.359C222.564 302.566 192.987 128.075 38.8922 152.99C21.2701 156.034 21.5976 156.411 1.01781 159.772" stroke="#1C6D7E" stroke-opacity="0.3" stroke-miterlimit="10"/>
<path d="M1011 159.782C961.227 143.757 941.259 126.978 901.589 119.861C841.039 111.047 809.397 147.629 724.841 122.953C690.315 112.296 670.575 101.136 644.883 99.0912C630.353 98.9317 624.601 101.894 611.221 108.386C545.858 138.306 500.633 43.5885 430.262 44.4382C375.644 48.7985 362.717 102.642 316.637 169.869C222.554 300.573 193.008 126.262 38.8922 152.679C20.579 156.022 21.165 156.367 1.01781 159.782" stroke="#1C6D7E" stroke-opacity="0.3" stroke-miterlimit="10"/>
<path d="M1011 159.781C961.767 144.313 941.425 127.014 901.589 119.715C840.804 110.667 808.358 148.374 724.841 123.768C670.263 106.708 651.563 88.8622 615.425 105.406C602.634 111.447 596.162 114.314 581.763 113.57C531.192 106.93 490.67 46.0912 434.469 43.2529C379.007 44.0507 363.265 97.9438 320.846 162.265C225.103 301.407 193.644 128.755 47.3103 150.895C28.8488 153.995 22.8162 155.962 1.01781 159.781" stroke="#1C6D7E" stroke-opacity="0.3" stroke-miterlimit="10"/>
<path d="M1011 159.781C960.841 144.488 938.641 125.419 897.378 119.09C857.218 114.325 839.26 127.723 792.173 132.083C703.428 138.41 668.508 81.5235 615.425 105.114C577.035 122.765 560.125 110.43 506.009 73.2139C485.288 59.1537 464.52 45.6021 438.676 42.696C381.939 39.8396 363.453 94.5305 325.055 154.477C226.799 302.461 195.15 129.293 51.5193 149.814C31.2687 153.089 24.576 155.521 1.01781 159.787" stroke="#1C6D7E" stroke-opacity="0.3" stroke-miterlimit="10"/>
<path d="M1011 159.781C960.751 144.983 938.972 125.799 897.378 119.181C857.179 114.182 839.307 127.558 792.173 132.303C702.944 139.448 668.467 82.3577 615.425 105.238C576.945 122.458 560.111 109.953 506.014 72.7057C485.343 58.6714 464.556 45.1119 438.681 42.1878C384.119 39.3554 365.12 89.4387 329.267 146.589C228.202 303.006 197.012 129.996 55.7318 148.715C33.9817 152.04 25.7067 155.166 1.01781 159.782" stroke="#1C6D7E" stroke-opacity="0.3" stroke-miterlimit="10"/>
<path d="M1011 159.781C963.589 146.303 941.364 127.895 901.589 119.966C859.059 112.949 840.904 127.189 792.173 132.532C701.927 140.523 668.665 83.0992 615.425 105.365C576.909 122.12 560.225 109.554 506.009 72.1985C485.294 58.1224 464.527 44.6127 438.676 41.6547C383.866 38.7305 364.561 89.4561 329.262 145.246C228.052 300.538 197.264 127.929 55.7266 148.192C33.6439 151.812 25.5602 155.044 1.01781 159.781" stroke="#1C6D7E" stroke-opacity="0.3" stroke-miterlimit="10"/>
<path d="M1011 159.782C962.639 146.533 941.925 128.36 901.589 120.089C859.132 112.844 840.998 126.996 792.174 132.757C701.586 141.599 668.404 84.0336 615.425 105.5C576.682 121.878 559.999 108.947 506.014 71.6968C485.331 57.6267 464.579 44.131 438.682 41.135C384.004 38.1431 364.86 88.1486 329.268 143.919C226.838 299.7 198.174 122.843 51.5232 148.419C30.7228 152.434 23.3975 155.33 1.02172 159.788" stroke="#1C6D7E" stroke-opacity="0.3" stroke-miterlimit="10"/>
<path d="M1011 159.781C962.036 146.868 938.929 126.792 897.378 119.46C855.571 113.548 837.025 128.212 787.96 133.422C697.144 141.121 670.101 83.1872 611.221 107.35C547.447 132.106 503.566 44.2579 434.469 40.3784C381.632 40.7434 365.697 87.6672 325.055 148.934C225.613 293.482 196.048 118.582 47.3086 148.809C25.9307 153.488 22.7162 155.333 1.01781 159.781" stroke="#1C6D7E" stroke-opacity="0.3" stroke-miterlimit="10"/>
<path d="M1011 159.781C962.279 147.49 938.903 127.35 897.38 119.751C857.179 113.795 839.56 126.78 792.175 133.143C700.977 143.602 668.224 86.6357 615.426 106.682C576.609 122.11 560.071 108.894 506.01 71.273C485.265 57.0493 464.582 43.5476 438.678 40.3562C384.486 36.9813 365.796 84.9982 329.264 141.113C226.718 293.97 198.246 118.825 51.5193 147.504C29.066 152.291 24.0624 154.938 1.01781 159.789" stroke="#1C6D7E" stroke-opacity="0.3" stroke-miterlimit="10"/>
<path d="M1011 159.781C962.623 148.162 942.399 130.085 901.589 120.957C838.777 109.007 804.605 149.026 724.841 129.504C691.129 120.5 670.945 108.379 644.883 104.136C630.289 102.638 624.734 104.713 611.221 109.909C547.642 132.901 503.606 44.8837 434.469 39.959C382.099 39.4982 366.497 84.7545 325.055 145.743C225.603 286.859 195.805 114.736 47.3086 147.987C25.9083 153.115 21.6011 155.345 1.01781 159.781" stroke="#1C6D7E" stroke-opacity="0.3" stroke-miterlimit="10"/>
<path d="M1011 159.781C963.661 148.982 941.825 130.659 901.591 121.394C859.018 112.989 841.265 126.072 792.175 133.402C699.681 145.569 668.341 91.1315 615.426 109.903C576.928 124.191 560.49 110.9 506.01 72.1326C402.791 -0.232712 382.053 58.9561 329.264 137.986C226.572 287.184 198.224 114.886 51.5193 146.592C27.7819 152.149 24.0641 154.695 1.01781 159.781" stroke="#1C6D7E" stroke-opacity="0.3" stroke-miterlimit="10"/>
<path d="M1011 159.781C960.7 148.916 939.88 129.674 897.378 120.976C834.942 110.254 799.65 150.895 716.426 129.413C683.71 120.333 665.113 109.903 640.67 107.352C626.5 106.836 623.119 109.046 607.008 114.435C546.374 131.376 499.02 41.4535 430.262 39.5766C378.898 41.4695 365.59 86.4326 320.846 148.284C223.602 276.98 195.166 108.737 43.0995 148.272C22.6611 153.847 19.1949 155.682 1.01781 159.781" stroke="#1C6D7E" stroke-opacity="0.3" stroke-miterlimit="10"/>
<path d="M1011 159.781C962.253 149.837 942.897 132.332 901.591 122.269C859.178 113.278 841.716 125.517 792.175 133.659C698.583 147.532 668.284 95.683 615.426 113.126C576.597 126.518 559.776 112.087 506.01 72.994C485.47 58.2756 464.732 44.0718 438.678 39.9629C385.546 34.7369 367.552 79.0198 329.264 134.858C226.484 280.279 198.053 111.002 51.5193 145.687C27.3251 151.844 23.3798 154.615 1.01781 159.781" stroke="#1C6D7E" stroke-opacity="0.3" stroke-miterlimit="10"/>
<path d="M1011 159.781C962.073 150.434 942.976 133.289 901.589 122.94C857.549 113.278 839.929 126.345 787.96 134.509C695.987 147.46 669.153 98.0573 611.221 117.21C548.395 136.414 503.323 47.3657 434.469 39.5687C383.018 36.9138 367.8 79.3237 325.055 138.901C225.045 273.25 196.302 107.007 47.3086 146.395C25.1672 152.585 20.5721 155.19 1.01781 159.781" stroke="#1C6D7E" stroke-opacity="0.3" stroke-miterlimit="10"/>
<path d="M1011 159.781C959.955 150.696 940.017 132.451 897.378 122.771C833.553 110.255 799.092 149.699 716.426 133.722C683.559 126.74 665.383 117.621 640.67 115.371C625.951 114.906 622.447 117.176 607.008 121.644C546.777 135.632 498.988 44.1824 430.262 39.3814C379.67 39.0802 365.783 82.9961 320.846 142.392C223.528 265.555 194.285 103.567 43.0995 147.259C21.7372 153.708 18.9071 155.523 1.01781 159.782" stroke="#1C6D7E" stroke-opacity="0.3" stroke-miterlimit="10"/>
<path d="M1011 159.781C961.405 151.603 943.56 135.566 901.589 124.53C857.809 114.269 840.622 125.768 787.96 135.034C694.005 150.296 669.975 105.934 611.221 123.642C546.891 141.211 501.059 45.638 430.262 39.4108C379.974 38.1881 365.782 81.8187 320.846 140.234C223.242 261.753 194.661 101.747 43.0995 146.95C22.1061 153.488 18.471 155.57 1.01781 159.781" stroke="#1C6D7E" stroke-opacity="0.3" stroke-miterlimit="10"/>
<path d="M1011 159.781C959.235 151.923 940.503 134.737 897.378 124.305C833.04 110.58 798.424 148.562 716.426 137.118C684.214 132.022 665.275 123.924 640.67 122.119C625.702 121.812 622.721 123.904 607.008 127.941C545.71 140.043 496.22 42.2436 426.053 39.2617C376.682 40.4305 363.486 85.8723 316.637 143.23C222.159 253.278 192.419 100.726 43.1012 146.641C20.9116 153.75 18.6744 155.467 1.01781 159.782" stroke="#1C6D7E" stroke-opacity="0.3" stroke-miterlimit="10"/>
<path d="M1011 159.781C961.475 152.908 943.388 137.641 901.589 126.118C835.497 109.642 797.828 147.993 716.426 138.818C684.005 134.565 665.475 127.091 640.67 125.494C625.347 125.262 622.391 127.387 607.008 131.079C545.789 142.119 496.291 43.4863 426.053 39.2138C376.997 39.4911 363.557 84.504 316.637 140.986C222.108 249.273 192.117 99.0988 43.1012 146.334C20.6669 153.726 18.5796 155.437 1.01781 159.782" stroke="#1C6D7E" stroke-opacity="0.3" stroke-miterlimit="10"/>
<path d="M1011 159.781C958.954 153.237 940.31 137.07 897.378 126.072C831.418 110.913 796.385 148.767 712.213 140.551C679.413 136.775 660.592 129.906 636.466 129.78C617.546 130.703 615.678 134.862 598.594 136.225C538.766 135.626 487.232 35.7827 417.636 39.4269C370.842 45.335 356.471 96.4096 308.22 147.704C243.516 212.202 209.081 156.137 135.688 139.484C72.6352 126.423 43.8976 149.124 1.01781 159.781" stroke="#1C6D7E" stroke-opacity="0.3" stroke-miterlimit="10"/>
<path d="M1011 159.781C960.013 154.033 945.072 140.723 901.591 128.296C833.156 110.334 798.444 146.906 716.428 143.316C683.087 141.273 666.39 135.449 640.672 134.539C621.568 134.655 619.593 138.024 602.8 140.375C543.23 143.836 491.447 42.1577 421.848 39.1997C376.422 40.4603 362.152 83.0816 316.639 135.886C221.734 240.716 191.974 96.3699 43.1034 145.883C19.6625 153.961 18.4008 155.457 1.02172 159.773" stroke="#1C6D7E" stroke-opacity="0.3" stroke-miterlimit="10"/>
<path d="M1011 159.781C943.683 153.059 916.388 124.875 863.718 123.564C818.579 124.075 777.132 147.189 712.214 145.571C677.102 144.133 657.205 138.067 632.256 139.635C606.574 142.567 597.925 152.8 564.924 133.673C514.024 101.464 472.335 39.0578 417.637 39.2293C358.862 43.8549 335.604 142.498 270.346 167.957C222.437 183.208 194.453 147.201 131.478 136.109C71.1361 126.734 41.5987 149.672 1.02172 159.781" stroke="#1C6D7E" stroke-opacity="0.3" stroke-miterlimit="10"/>
<path d="M1011 159.781C958.773 155.247 947.654 144.211 901.589 130.588C832.35 111.537 796.93 145.785 716.426 148.035C683.495 148.422 666.705 144.149 640.67 144.046C623.951 144.53 622.483 146.383 607.008 148.964C546.472 154.98 496.189 50.8763 426.053 39.6146C376.635 35.0269 362.05 82.3875 312.429 135.158C245.847 202.143 209.875 150.317 139.897 136.289C73.0574 124.251 42.8823 149.347 1.01781 159.781" stroke="#1C6D7E" stroke-opacity="0.3" stroke-miterlimit="10"/>
<path d="M1011 159.781C941.128 154.615 915.312 127.724 863.716 125.043C818.289 124.361 775.449 147.552 712.212 150.594C677.255 151.747 657.491 147.361 632.254 149.29C606.281 152.343 597.327 161.246 564.921 140.888C513 105.492 469.067 37.4386 413.417 39.1619C357.886 45.4909 334.86 136.811 270.346 161.666C222.137 176.947 194.242 142.701 131.475 133.606C70.8392 126.056 39.4713 150.187 1.01781 159.782" stroke="#1C6D7E" stroke-opacity="0.3" stroke-miterlimit="10"/>
<path d="M1011 159.781C938.984 155.315 915.178 129.365 863.716 126.012C816.743 124.681 772.757 149.058 708.01 153.773C674.787 155.714 656.548 152.636 632.256 154.695C606.583 157.79 597.034 166.028 564.923 145.013C512.898 108.156 468.919 38.8521 413.419 39.1493C358.17 44.0781 335.074 133.641 270.337 158.502C222.271 173.771 193.108 140.471 131.465 132.494C70.6616 125.886 39.1077 150.354 1.01781 159.781" stroke="#1C6D7E" stroke-opacity="0.3" stroke-miterlimit="10"/>
<path d="M1011 159.781C954.24 156.857 946.642 147.596 897.378 133.284C828.66 114.493 792.151 146.249 712.213 156.494C679.482 160.228 661.755 158.233 636.466 159.953C619.041 161.584 615.656 163.832 602.797 164.293C542.037 161.068 488.375 46.3501 417.636 39.2951C373.469 38.3676 356.061 85.6026 308.22 130.975C242.568 189.617 207.66 141.546 135.688 131.926C71.4769 124.626 40.8675 150.045 1.01781 159.781" stroke="#1C6D7E" stroke-opacity="0.3" stroke-miterlimit="10"/>
<path d="M1011 159.781C951.017 157.42 943.514 147.58 893.174 133.522C824.897 115.77 785.054 149.26 703.799 160.771C670.314 165.071 652.57 163.41 628.052 166.535C609.856 169.292 604.793 171.36 590.177 167.451C529.77 145.871 472.473 31.1614 405.011 39.9937C364.687 49.2049 343.265 102.226 295.597 138.477C260.906 162.743 236.317 159.766 194.594 145.749C87.4305 109.267 64.6463 144.425 1.01781 159.781" stroke="#1C6D7E" stroke-opacity="0.3" stroke-miterlimit="10"/>
<path d="M1011 159.781C929.289 157.519 906.858 130.37 855.293 128.802C807.634 129.153 763.347 153.228 703.799 164.145C670.016 169.892 653.585 168.854 628.052 172.201C600.157 176.362 590.467 178.249 560.719 154.728C509.411 111.796 463.369 38.6665 409.215 39.3806C357.7 44.8739 331.267 129.395 266.135 150.33C218.062 162.93 189.712 132.943 127.265 129.089C69.0139 126.79 37.2479 151.144 1.01781 159.781" stroke="#1C6D7E" stroke-opacity="0.3" stroke-miterlimit="10"/>
<path d="M1011 159.781C927.769 158.571 911.405 134.172 859.504 129.952C811.445 127.859 766.655 152.625 708.01 166.581C675.62 173.868 658.025 174.211 632.256 177.312C602.846 181.268 594.326 184.866 564.923 162.406C512.951 119.883 468.2 44.8726 413.419 39.3913C360.685 38.755 335.221 121.07 270.337 145.813C221.422 161.599 192.579 132.403 131.465 128.31C70.46 125.508 37.7357 151.139 1.01781 159.782" stroke="#1C6D7E" stroke-opacity="0.3" stroke-miterlimit="10"/>
<path d="M1011 159.781C945.465 159.382 946.018 152.622 888.967 136.643C819.537 118.382 777.746 152.321 699.586 172.038C671.557 178.758 651.905 180.555 615.425 185.27C601.898 186.523 595.146 185.442 581.763 178.489C522.05 142.926 461.302 24.758 396.595 41.6566C358.429 55.5911 335.176 105.728 287.18 135.006C247.991 156.679 221.842 146.73 177.764 134.842C87.8356 111.533 46.314 149.353 1.01781 159.781" stroke="#1C6D7E" stroke-opacity="0.3" stroke-miterlimit="10"/>
<path d="M1011 159.781C951.254 159.969 955.36 157.908 893.174 139.39C820.183 118.598 783.429 150.231 703.799 174.464C672.379 183.639 656.417 185.147 623.839 189.735C609.638 191.679 603.313 192.312 590.177 187.515C530.792 160.39 471.335 37.9529 405.011 40.2727C365.692 45.5784 343.451 93.1525 295.597 126.96C231.172 169.104 196.881 124.476 118.85 126.76C65.2116 129.6 34.8848 152.186 1.01781 159.781" stroke="#1C6D7E" stroke-opacity="0.3" stroke-miterlimit="10"/>
<path d="M1011 159.781C967.717 160.31 964.414 163.172 901.589 143.521C866.277 132.66 846.006 128.145 800.586 141.281C746.76 157.851 693.166 191.672 611.219 196.587C549.642 196.174 497.501 73.2882 426.053 44.1705C352.053 19.3692 330.015 155.78 219.848 140.976C166.978 132.519 134.454 109.66 43.0995 145.141C17.935 155.098 16.5354 156.391 1.01781 159.782" stroke="#1C6D7E" stroke-opacity="0.3" stroke-miterlimit="10"/>
<path d="M1011 159.782C982.903 160.38 971.872 163.017 939.468 155.92C907.004 148.225 886.961 138.485 859.509 134.952C788.359 128.52 734.97 182.457 640.675 198.474C607.811 203.741 597.878 205.17 573.345 186.988C522.433 145.883 477.402 63.5844 421.845 43.5343C366.459 27.9024 341.193 104.153 274.555 132.768C223.314 152.148 191.422 125.606 131.475 125.125C71.1994 125.963 37.2031 152.092 1.01781 159.782" stroke="#1C6D7E" stroke-opacity="0.3" stroke-miterlimit="10"/>
<path d="M1011 159.781C968.961 161.054 964.838 166.31 897.378 145.392C862.627 134.738 841.254 130.183 796.384 144.614C742.549 162.994 680.411 205.634 611.221 207.513C550.205 204.796 497.267 78.6594 426.053 45.9354C352.613 17.5697 330.176 149.99 215.639 135.82C160.884 127.913 132.696 109.58 38.8922 146.99C16.937 155.852 14.7584 156.941 1.01781 159.781" stroke="#1C6D7E" stroke-opacity="0.3" stroke-miterlimit="10"/>
<path d="M1011 159.781C984.173 160.778 974.159 164.231 943.667 159.242C912.48 153.432 895.303 144.867 867.92 138.989C789.944 124.57 732.171 189 644.886 208.025C606.364 215.703 596.748 212.613 577.554 198.932C527.833 159.901 481.813 74.0496 426.049 47.3055C371.506 25.1651 346.639 91.0419 282.968 123.86C229.869 148.747 196.702 125.056 139.887 123.72C75.7687 123.598 38.4682 152.315 1.01781 159.781" stroke="#1C6D7E" stroke-opacity="0.3" stroke-miterlimit="10"/>
<path d="M1011 159.781C976.431 161.261 963.525 168.019 910.005 152.417C869.058 140.15 848.709 130.762 800.588 145.51C739.917 165.636 678.476 216.994 611.221 216.772C550.578 212.001 497.103 84.1889 426.053 48.8379C353.408 18.0308 330.724 142.885 215.639 132.238C147.015 124.544 134.478 109.333 30.4724 150.748C14.2913 157.149 11.2388 157.823 1.01781 159.782" stroke="#1C6D7E" stroke-opacity="0.3" stroke-miterlimit="10"/>
<path d="M1011 159.781C976.221 161.478 962.711 169.501 905.793 152.726C867.036 140.989 845.108 131.668 796.384 148.066C736.62 169.622 675.678 222.466 611.221 221.281C550.722 215.497 497.132 87.0165 426.053 50.369C353.992 18.5187 330.708 139.424 215.639 130.51C145.316 123.74 135.836 109.231 30.4759 150.937C14.2895 157.278 11.1422 157.918 1.01781 159.781" stroke="#1C6D7E" stroke-opacity="0.3" stroke-miterlimit="10"/>
<path d="M1011 159.782C983.115 161.308 972.663 166.642 939.468 162.122C907.618 157.007 891.604 148.359 863.721 142.487C781.506 127.968 722.179 203.768 640.675 222.771C607.755 229.524 595.31 225.563 573.345 207.167C523.109 161.771 476.661 75.1736 421.845 49.9674C369.782 30.1448 343.12 90.67 278.762 119.431C225.331 141.132 191.876 120.121 135.681 122.111C76.01 125.612 37.7719 153.304 1.01781 159.782" stroke="#1C6D7E" stroke-opacity="0.3" stroke-miterlimit="10"/>
<path d="M1011 159.781C983.176 161.466 975.147 166.75 943.667 163.844C912.86 160.17 895.132 151.529 867.92 144.831C784.325 126.524 727.067 201.307 649.093 225.215C612.413 235.326 598.728 229.88 581.763 217.913C531.989 178.941 486.985 90.9082 430.258 55.7488C374.638 25.0853 348.794 83.9849 282.98 115.444C228.962 139.19 194.53 120.006 139.89 121.374C79.09 124.292 38.6009 153.444 1.01781 159.781" stroke="#1C6D7E" stroke-opacity="0.3" stroke-miterlimit="10"/>
<path d="M1011 159.781C982.855 161.576 975.471 167.245 943.667 164.843C912.86 161.652 895.406 153.133 867.92 146.217C783.176 127.141 726.19 204.14 649.093 228.538C613.672 238.573 599.318 233.299 581.763 220.743C532.169 181.449 486.92 93.4752 430.258 57.9009C376.482 27.7819 350.083 80.5819 287.177 112.113C232.568 137.531 197.626 120.177 144.099 120.862C81.7047 123.074 39.8212 153.556 1.01781 159.781" stroke="#1C6D7E" stroke-opacity="0.3" stroke-miterlimit="10"/>
<path d="M1011 159.781C983.015 161.648 975.525 167.682 943.667 165.799C912.913 163.096 895.448 154.629 867.92 147.582C780.456 127.436 722.602 210.252 644.886 232.731C612.076 241.053 597.796 236.066 577.543 219.874C528.448 177.171 481.401 89.1533 426.039 57.8255C373.695 31.9691 346.822 84.049 282.98 112.913C228.587 135.626 192.532 118.335 139.899 120.71C81.1066 124.766 39.0715 153.993 1.01781 159.781" stroke="#1C6D7E" stroke-opacity="0.3" stroke-miterlimit="10"/>
<path d="M1011 159.782C981.771 161.809 976.259 168.159 943.667 166.763C868.161 161.31 851.124 112.178 737.468 185.24C689.476 216.366 632.831 259.031 585.963 228.814C535.953 192.283 488.662 99.7934 430.262 62.5137C377.042 32.0875 350.143 80.2659 287.18 109.908C232.051 134.095 196.283 118.519 144.099 120.179C85.0451 123.422 38.7285 154.359 1.01781 159.782" stroke="#1C6D7E" stroke-opacity="0.3" stroke-miterlimit="10"/>
<path d="M1011 159.782C976.116 162.295 960.45 175.695 905.793 161.427C867.012 150.642 844.688 137.821 796.384 154.867C728.358 180.983 673.563 248.381 611.221 241.941C550.615 230.717 493.287 96.4998 421.845 60.2533C354.59 31.1895 328.293 124.893 211.43 122.287C179.564 121.175 160.304 117.673 131.475 120.976C78.6023 128.31 36.7256 154.937 1.01781 159.782" stroke="#1C6D7E" stroke-opacity="0.3" stroke-miterlimit="10"/>
<path d="M1011 159.781C975.952 162.398 960.071 176.643 905.793 162.805C866.822 152.155 844.632 138.869 796.384 155.981C727.924 182.424 673.346 252.023 611.221 244.754C550.734 232.729 493.256 99.2177 421.845 62.5045C354.373 32.8123 328.642 124.031 207.223 121.097C174.393 119.978 155.68 117.124 127.265 121.374C76.7908 130.177 35.7622 155.357 1.01781 159.781" stroke="#1C6D7E" stroke-opacity="0.3" stroke-miterlimit="10"/>
<path d="M1011 159.781C975.442 162.454 959.995 177.398 905.793 163.902C867.262 153.56 846.599 140.755 800.588 155.411C730.999 179.991 678.486 249.957 615.425 246.436C553.251 238.444 498.909 109.732 426.053 67.5594C357.552 32.5576 330.345 119.849 215.639 120.577C183.892 120.353 163.617 117.134 135.681 120.144C82.9561 127.171 39.056 155.236 1.01781 159.781" stroke="#1C6D7E" stroke-opacity="0.3" stroke-miterlimit="10"/>
<path d="M1011 159.782C977.512 162.293 960.636 177.135 910.005 165.951C869.463 156.098 850.541 142.059 804.8 154.953C734.11 177.317 683.484 247.661 619.635 247.49C556.398 243.229 503.93 119.69 430.262 73.0072C360.087 32.915 332.413 117.332 219.848 119.963C186.555 120.254 164.913 116.706 135.681 120.081C83.4559 127.493 39.6609 155.455 1.01781 159.774" stroke="#1C6D7E" stroke-opacity="0.3" stroke-miterlimit="10"/>
<path d="M1011 159.781C982.541 161.915 976.576 169.754 943.667 170.73C867.55 170.49 850.165 114.617 737.468 191.219C687.545 225.542 636.554 269.408 585.963 236.074C536.923 199.943 488.633 112.476 430.262 76.0185C378.069 46.5757 349.278 83.7517 287.18 107.36C228.602 128.238 189.999 114.637 139.89 119.508C86.8687 126.05 42.3808 155.467 1.01781 159.781" stroke="#1C6D7E" stroke-opacity="0.3" stroke-miterlimit="10"/>
<path d="M1011 159.781C982.517 161.913 976.678 170.002 943.667 171.398C867.868 172.1 849.995 115.37 737.468 192.088C685.536 227.908 638.772 267.581 590.177 239.457C541.496 207.459 493.973 121.574 434.469 81.6273C381.382 48.9532 352.388 82.5748 291.388 105.808C232.096 127.151 194.559 114.966 144.099 118.987C88.7577 124.765 45.6487 155.463 1.01781 159.781" stroke="#1C6D7E" stroke-opacity="0.3" stroke-miterlimit="10"/>
<path d="M1011 159.782C977.267 162.301 960.357 179.03 910.005 168.957C869.142 159.75 848.971 143.946 800.588 158.91C730.971 182.909 681.347 252.147 619.635 249.949C556.019 243.48 500.593 120.683 426.053 79.7389C358.636 46.7975 329.919 116.388 215.639 118.295C183.235 118.505 161.968 116.261 135.681 119.921C86.5291 128.123 42.0068 156.129 1.01781 159.782" stroke="#1C6D7E" stroke-opacity="0.3" stroke-miterlimit="10"/>
<path d="M1011 159.781C976.891 162.274 960.422 179.398 910.005 169.569C869.185 160.557 849.138 144.636 800.588 159.446C731.002 183.108 681.256 251.905 619.635 249.061C558.554 242.227 507.831 134.938 434.469 88.0639C362.676 45.9492 334.5 115.39 219.848 118.067C185.653 118.502 163.288 115.949 135.681 119.978C87.4702 128.342 42.5376 156.348 1.01781 159.781" stroke="#1C6D7E" stroke-opacity="0.3" stroke-miterlimit="10"/>
<path d="M1011 159.781C976.798 162.213 960.262 179.678 910.005 170.108C869.27 161.287 849.335 145.292 800.588 159.919C730.392 183.436 681.557 251.347 619.635 247.819C557.1 240.213 504.978 131.442 430.262 89.2452C360.528 53.5114 333.395 117.056 215.639 118.016C180.477 118.016 158.526 115.933 131.474 120.808C85.0709 130.426 42.467 156.608 1.01781 159.782" stroke="#1C6D7E" stroke-opacity="0.3" stroke-miterlimit="10"/>
<path d="M1011 159.782C975.473 162.235 959.118 181.071 905.793 169.755C867.255 160.616 847.449 146.558 800.588 160.398C728.729 184.087 678.62 254.326 615.425 246.026C555.485 234.114 499.173 126.863 426.053 90.8255C358.35 60.9877 332.527 118.373 211.43 117.899C175.653 117.568 154.432 115.986 127.265 121.806C82.9182 132.462 41.5173 156.936 1.01781 159.782" stroke="#1C6D7E" stroke-opacity="0.3" stroke-miterlimit="10"/>
<path d="M1011 159.781C975.545 162.157 959.095 181.399 905.793 170.307C867.336 161.331 847.626 147.201 800.588 160.865C728.662 184.216 678.7 253.661 615.425 244.739C555.221 232.282 499.828 129.481 426.053 94.5569C358.146 65.7584 334.159 118.702 211.43 117.784C175.077 117.342 153.92 116.047 127.265 121.935C82.8889 132.902 42.5893 157.121 1.01781 159.782" stroke="#1C6D7E" stroke-opacity="0.3" stroke-miterlimit="10"/>
<path d="M1011 159.781C975.376 162.101 958.995 181.708 905.793 170.863C867.331 162.029 847.801 147.853 800.588 161.339C728.922 184.222 678.703 253.003 615.425 243.446C556.995 230.88 503.218 136.64 430.262 100.194C361.262 68.8779 335.333 118.488 215.639 117.701C181.612 117.302 157.81 115.84 131.474 121.091C86.6773 131.296 45.0231 157.234 1.01781 159.781" stroke="#1C6D7E" stroke-opacity="0.3" stroke-miterlimit="10"/>
<path d="M1011 159.782C975.147 162.016 959.007 181.723 905.793 170.984C867.356 162.223 847.999 148.147 800.588 161.41C729.036 183.795 678.789 250.855 615.425 240.854C555.874 227.757 500.614 134.366 426.053 102.494C384.054 86.3635 356.074 97.5674 312.429 108.269C227.88 128.287 183.626 109.112 127.265 122.245C84.3729 133.361 44.2474 157.49 1.01782 159.782" stroke="#1C6D7E" stroke-opacity="0.3" stroke-miterlimit="10"/>
<path d="M1011 159.781C974.885 161.923 959.104 181.722 905.793 171.025C867.486 162.354 848.225 148.368 800.588 161.407C729.268 183.226 679.05 248.48 615.425 238.001C556.477 224.798 504.876 141.191 430.262 108.441C387.394 91.3072 358.56 100.883 316.637 109.979C227.871 128.679 184.814 108.724 127.265 122.422C84.1574 133.827 45.2592 157.637 1.01782 159.781" stroke="#1C6D7E" stroke-opacity="0.3" stroke-miterlimit="10"/>
<path d="M1011 159.781C975.731 161.776 960.069 180.472 910.005 171.907C869.919 163.928 852.415 149.02 804.8 160.278C734.413 179.103 686.318 240.169 623.839 236.369C562.024 229.209 512.543 148.911 434.469 114.32C389.569 95.9929 359.539 104.907 316.637 112.736C229.81 128.043 184.025 108.818 127.265 122.613C83.7851 134.34 46.3296 157.785 1.01782 159.781" stroke="#1C6D7E" stroke-opacity="0.3" stroke-miterlimit="10"/>
<path d="M1011 159.781C975.438 161.677 960.109 180.443 910.005 171.948C869.966 164.037 852.633 149.253 804.8 160.307C734.974 178.568 686.27 238.04 623.839 233.6C562.391 225.931 513.368 150.675 434.469 118.354C390.438 101.749 359.818 108.915 320.846 114.873C233.432 127.821 186.987 109.586 131.475 121.757C86.2551 132.975 49.42 157.876 1.01782 159.781" stroke="#1C6D7E" stroke-opacity="0.3" stroke-miterlimit="10"/>
<path d="M1011 159.781C975.204 161.577 960.214 180.42 910.005 171.979C869.987 164.134 852.926 149.469 804.8 160.326C733.653 178.507 683.736 238.809 619.635 230.256C561.24 219.451 511.728 151.422 434.469 122.376C390.367 107.101 358.843 113.263 320.846 117.767C234.066 127.634 187.11 109.467 131.475 121.925C86.0999 133.41 50.4007 158.054 1.01782 159.782" stroke="#1C6D7E" stroke-opacity="0.3" stroke-miterlimit="10"/>
<path d="M1011 159.781C974.913 161.491 960.222 180.127 910.005 171.608C870.002 163.723 853.147 149.3 804.8 159.967C734.132 177.619 684.093 235.743 619.635 226.767C561.348 215.797 513.024 153.285 434.469 126.651C388.761 112.365 355.749 118.486 316.637 121.552C232.337 127.608 184.693 108.497 127.265 123.238C82.7561 135.836 49.3183 158.252 1.01782 159.781" stroke="#1C6D7E" stroke-opacity="0.3" stroke-miterlimit="10"/>
<path d="M1011 159.782C974.63 161.392 960.262 179.8 910.005 171.177C870.006 163.237 853.382 149.053 804.8 159.555C734.546 176.695 684.574 232.57 619.635 223.184C561.793 212.161 514.392 155.085 434.469 130.95C390.305 118.673 357.102 122.971 320.846 124.748C238.663 128.293 191.798 110.188 135.681 121.419C89.13 132.182 53.9513 158.262 1.01782 159.782" stroke="#1C6D7E" stroke-opacity="0.3" stroke-miterlimit="10"/>
<path d="M1011 159.781C979.942 161.058 977.476 169.69 943.667 172.81C867.839 177.18 861.498 123.656 737.468 185.801C681.761 213.925 646.561 233.672 590.177 210.557C545.079 190.81 503.146 154.737 438.673 136.378C383.442 121.773 345.385 130.061 291.384 127.817C230.788 124.765 185.424 111.513 135.681 121.654C89.6574 132.437 54.5218 158.405 1.01782 159.781" stroke="#1C6D7E" stroke-opacity="0.3" stroke-miterlimit="10"/>
<path d="M1011 159.782C974.113 161.188 960.481 179.17 910.005 170.319C869.661 162.189 852.223 147.686 800.588 159.71C730.544 177.861 682.305 228.266 615.425 215.189C559.128 201.994 513.081 156.042 430.262 138.693C384.745 129.95 348.875 132.84 312.429 131.56C260.204 129.324 233.047 121.325 190.398 118.561C97.9514 113.821 80.2173 157.981 1.01782 159.782" stroke="#1C6D7E" stroke-opacity="0.3" stroke-miterlimit="10"/>
<path d="M1011 159.781C973.675 161.087 960.496 178.843 910.005 169.887C869.926 161.755 852.437 147.492 800.588 159.272C731.173 176.805 682.933 224.961 615.425 211.591C559.925 198.612 517.779 159.679 434.469 143.882C390.367 136.156 348.756 137.1 316.637 135.091C264.36 131.393 236.815 122.724 194.606 119.104C99.332 112.217 82.158 158.177 1.01782 159.781" stroke="#1C6D7E" stroke-opacity="0.3" stroke-miterlimit="10"/>
<path d="M1011 159.781C973.313 161 960.598 178.331 910.005 169.128C869.819 160.822 852.62 146.936 800.588 158.557C770.238 166.084 749.123 176.977 716.426 191.127C617.414 233.124 597.902 198.589 501.801 164.88C424.52 138.68 378.295 145.775 308.22 137.82C230.048 128.27 182.858 105.525 114.641 128.631C67.7332 145.276 46.4881 158.976 1.01782 159.781" stroke="#1C6D7E" stroke-opacity="0.3" stroke-miterlimit="10"/>
<path d="M1011 159.781C972.979 160.908 960.719 177.787 910.005 168.328C869.969 159.905 854.505 147.135 804.8 156.895C774.379 163.585 752.316 174.308 720.63 187.55C621.035 228.576 605.466 197.569 506.014 167.211C419.803 141.863 373.031 154.87 278.767 135.895C229.757 125.763 196.283 115.698 152.515 119.96C97.7291 126.76 65.6959 158.746 1.01782 159.781" stroke="#1C6D7E" stroke-opacity="0.3" stroke-miterlimit="10"/>
<path d="M1011 159.781C972.506 160.82 960.803 177.242 910.005 167.53C869.942 158.953 854.657 146.518 804.8 156.161C738.419 170.536 691.192 211.48 623.839 202.594C569.001 193.64 535.96 166.89 442.885 157.684C405.616 154.294 359.022 153.895 308.22 144.584C260.056 135.337 228.121 123.074 186.181 119.733C105.409 114.87 78.7919 158.674 1.01782 159.781" stroke="#1C6D7E" stroke-opacity="0.3" stroke-miterlimit="10"/>
<path d="M1011 159.781C972.158 160.724 960.896 176.701 910.005 166.732C869.942 157.988 854.791 145.908 804.8 155.445C735.996 170.095 690.83 210.082 619.635 198.413C561.86 187.486 536.703 166.299 434.469 161.313C271.116 154.013 275.712 131.212 194.597 120.946C106.447 111.495 84.8658 158.754 1.01782 159.781" stroke="#1C6D7E" stroke-opacity="0.3" stroke-miterlimit="10"/>
<path d="M1011 159.782C971.833 160.629 961.013 176.167 910.005 165.933C869.754 156.991 854.969 145.277 804.8 154.719C735.52 169.222 690.558 208.175 615.425 194.127C574.642 185.716 548.032 174.444 497.592 168.765C463.579 165.287 439.679 166.007 409.218 165.273C297.963 161.87 256.555 127.195 186.184 120.529C107.909 114.847 80.3948 158.946 1.01782 159.782" stroke="#1C6D7E" stroke-opacity="0.3" stroke-miterlimit="10"/>
<path d="M1011 159.781C971.433 160.557 961.06 175.478 910.005 164.907C869.101 155.6 853.644 143.654 800.588 154.734C733.771 170.027 690.341 204.8 615.425 191.314C576.061 183.573 545.765 172.997 493.385 170.189C458.556 168.649 435.874 170.502 405.011 169.975C303.241 167.199 257 128.391 186.181 121.141C108.833 115.007 81.815 159.019 1.01782 159.781" stroke="#1C6D7E" stroke-opacity="0.3" stroke-miterlimit="10"/>
<path d="M1011 159.782C970.828 160.494 961.138 174.78 910.005 163.863C868.925 154.289 853.669 142.792 800.588 153.846C768.212 161.226 745.567 171.582 712.213 181.747C618.438 209.203 600.76 171.738 489.179 172.069C419.086 172.851 384.195 183.716 299.807 155.446C224.293 129.537 185.705 106.358 110.435 132.571C57.2917 151.694 44.8283 159.417 1.01782 159.782" stroke="#1C6D7E" stroke-opacity="0.3" stroke-miterlimit="10"/>
<path d="M1011 159.781C970.86 160.409 961.175 174.081 910.005 162.817C868.749 152.979 853.676 141.931 800.588 152.961C734.103 168.031 694.414 198.902 615.425 185.781C494.237 164.379 498.702 176.48 413.419 179.448C316.544 181.652 267.842 135.736 194.597 123.477C113.574 111.89 85.6845 159.169 1.01782 159.781" stroke="#1C6D7E" stroke-opacity="0.3" stroke-miterlimit="10"/>
<path d="M1011 159.781C970.029 160.346 961.318 173.397 910.006 161.776C869.292 151.843 854.851 141.746 804.801 151.205C736.719 165.329 699.067 196.319 615.426 183.017C503.593 164.237 488.153 180.187 413.42 184.134C317.012 187.838 266.512 135.098 190.386 123.531C113.858 113.909 84.8671 159.255 1.01391 159.782" stroke="#1C6D7E" stroke-opacity="0.3" stroke-miterlimit="10"/>
<path d="M1011 159.782C976.564 160.181 974.373 166.563 943.667 165.795C913.547 164.116 895.796 156.002 867.92 149.503C815.462 138.585 770.332 161.124 716.426 175.593C652.344 191.949 628.35 180.239 577.55 175.128C513.591 169.406 479.153 181.798 426.046 187.742C299.578 200.339 245.061 105.372 139.89 125.59C89.6712 136.638 64.1705 159.455 1.01782 159.782" stroke="#1C6D7E" stroke-opacity="0.3" stroke-miterlimit="10"/>
<path d="M1011 159.782C968.954 160.216 961.649 171.977 910.005 159.556C869.197 149.128 853.423 139.211 800.588 150.287C767.698 157.737 745.989 167.104 712.213 175.36C663.567 186.578 638.602 181.419 602.797 176.584C518.513 165.867 480.355 186.434 417.636 192.827C324.277 200.761 275.674 143.827 198.806 126.589C119.272 110.897 88.868 159.381 1.01782 159.782" stroke="#1C6D7E" stroke-opacity="0.3" stroke-miterlimit="10"/>
<path d="M1011 159.781C968.392 160.168 961.568 171.174 910.005 158.385C869.171 147.699 853.299 138.203 800.588 149.387C769.209 156.568 749.173 164.983 716.426 173.093C668.484 184.301 643.986 180.038 607.008 175.421C523.948 165.725 484.376 188.187 421.845 196.624C325.82 207.931 277.968 146.138 198.811 127.544C120.934 111.415 89.0525 159.436 1.01782 159.781" stroke="#1C6D7E" stroke-opacity="0.3" stroke-miterlimit="10"/>
<path d="M1011 159.781C967.963 160.112 961.444 170.353 910.005 157.198C869.058 146.228 853.116 137.186 800.588 148.47C723.906 166.176 711.784 185.879 611.221 174.135C526.723 164.934 485.555 191.133 421.845 200.837C326.347 213.603 278.936 148.179 198.811 128.482C122.321 111.928 89.6109 159.488 1.01782 159.781" stroke="#1C6D7E" stroke-opacity="0.3" stroke-miterlimit="10"/>
<path d="M1011 159.781C967.072 160.057 961.51 169.571 910.005 156.02C869.056 144.792 852.992 136.165 800.588 147.562C767.896 155.178 749.538 163.073 716.426 170.598C668.122 180.855 643.456 175.33 607.008 171.937C525.575 165.416 481.847 196.09 417.636 205.684C326.251 217.349 278.09 149.756 198.806 129.429C123.912 112.493 90.2676 159.417 1.01782 159.782" stroke="#1C6D7E" stroke-opacity="0.3" stroke-miterlimit="10"/>
<path d="M1011 159.781C966.701 160.002 961.255 168.711 910.005 154.84C869.08 143.363 852.835 135.151 800.588 146.662C768.096 154.301 749.052 162.28 716.426 169.361C667.881 179.15 642.311 172.933 607.008 170.207C529.01 165.378 485.189 197.429 421.845 209.281C329.059 224.618 283.076 155.323 203.014 131.507C131.131 112.316 85.8655 156.37 22.0595 159.511C13.6466 159.767 11.5921 159.747 1.01782 159.781" stroke="#1C6D7E" stroke-opacity="0.3" stroke-miterlimit="10"/>
<path d="M1011 159.781C965.591 159.959 961.217 167.882 910.005 153.612C868.885 141.802 852.549 134.083 800.588 145.757C769.89 153.111 751.465 160.573 720.63 167.499C672.462 177.639 647.652 172.062 611.221 169.306C531.782 164.539 486.451 200.291 421.845 213.29C329.067 229.831 283.795 157.522 203.014 132.607C132.117 112.963 84.8848 157.093 22.0595 159.566C13.6673 159.766 11.5318 159.754 1.01782 159.782" stroke="#1C6D7E" stroke-opacity="0.3" stroke-miterlimit="10"/>
<path d="M1011 159.782C965.322 159.917 960.965 166.988 910.005 152.38C868.828 140.276 852.384 132.982 800.588 144.864C768.775 152.619 748.535 160.867 716.426 167.421C667.77 176.569 642.592 169.446 607.017 167.924C531.132 166.153 485.975 203.472 421.854 217.301C329.086 235.033 284.483 159.746 203.022 133.716C133.189 113.668 83.823 157.789 22.0595 159.62C13.6915 159.772 11.5042 159.76 1.01782 159.782" stroke="#1C6D7E" stroke-opacity="0.3" stroke-miterlimit="10"/>
<path d="M1011 159.782C955.326 159.948 962.27 166.975 897.378 147.326C863.892 137.255 845.291 132.874 796.384 145.012C764.199 153.373 743.986 161.466 712.213 167.22C663.582 175.213 638.94 166.921 602.798 166.779C526.223 168.176 479.455 211.206 413.427 222.916C323.571 236.316 277.639 154.301 194.597 132.468C127.659 117.205 91.7378 159.591 1.01782 159.782" stroke="#1C6D7E" stroke-opacity="0.3" stroke-miterlimit="10"/>
<path d="M1011 159.781C952.646 159.917 963.503 166.08 893.175 144.75C816.916 122.286 783.963 154.952 708.011 166.89C659.305 173.652 636.324 164.405 598.595 165.893C554.633 168.697 521.55 185.083 480.761 203.651C409.717 235.579 374.863 240.193 312.431 200.998C236.337 151.968 206.841 115.463 123.059 136.312C55.1797 154.065 59.3508 159.68 1.02758 159.779" stroke="#1C6D7E" stroke-opacity="0.3" stroke-miterlimit="10"/>
</svg>
