<svg id="Layer_1" data-name="Layer 1" xmlns="http://www.w3.org/2000/svg" viewBox="0 0 1080 1080"><defs><style>.cls-1{fill:#fff;}</style></defs><path class="cls-1" d="M82.77,711h27.61l30.9,87.69h.31L171.71,711H199V823H180.34V736.53H180L149,823H132.81l-31.06-86.43h-.31V823H82.77Z"/><path class="cls-1" d="M248.73,711h20.86l43.13,112h-21L281.2,793.31H236.49L226,823H205.75Zm-6.9,67.45H276l-16.78-48.16h-.48Z"/><path class="cls-1" d="M319.63,711h53.49q18.5,0,27.76,8t9.25,22.28a32.48,32.48,0,0,1-2.35,13.25,29,29,0,0,1-5.49,8.47,21.27,21.27,0,0,1-6.19,4.63q-3.06,1.41-4.47,1.88v.31a20.37,20.37,0,0,1,5.41,1.57,16,16,0,0,1,5.41,4,21.69,21.69,0,0,1,4.15,7.14,31.51,31.51,0,0,1,1.65,11,99.61,99.61,0,0,0,1.49,18q1.49,8.09,4.63,11.53h-21a18.22,18.22,0,0,1-2.59-8q-.39-4.4-.39-8.47a80.64,80.64,0,0,0-.94-13.26A23.2,23.2,0,0,0,386,784a14.61,14.61,0,0,0-6.83-5.41,30.06,30.06,0,0,0-11-1.73H339.23V823h-19.6Zm19.6,51h32.16q9.41,0,14.27-4.47t4.87-13.41a20.85,20.85,0,0,0-1.57-8.71,12.79,12.79,0,0,0-4.31-5.25,15.91,15.91,0,0,0-6.28-2.51,41.37,41.37,0,0,0-7.29-.63H339.23Z"/><path class="cls-1" d="M524,823H511.46l-3-13.18q-7.85,8.94-15.68,12.4a44.59,44.59,0,0,1-18,3.45A52.88,52.88,0,0,1,452.25,821a49.48,49.48,0,0,1-16.86-12.63,56.16,56.16,0,0,1-10.59-18.66,71.48,71.48,0,0,1,0-45.34,56.16,56.16,0,0,1,10.59-18.66A50.34,50.34,0,0,1,452.25,713a52,52,0,0,1,22.51-4.71,60.94,60.94,0,0,1,17.33,2.44,46.3,46.3,0,0,1,14.67,7.21,39.89,39.89,0,0,1,10.66,12,41.94,41.94,0,0,1,5.34,16.63H503.62a24,24,0,0,0-9.88-16.63,28.63,28.63,0,0,0-8.79-4.23,36,36,0,0,0-10.19-1.42,31.45,31.45,0,0,0-15.45,3.61,30.33,30.33,0,0,0-10.59,9.65,43.61,43.61,0,0,0-6,13.72,63.78,63.78,0,0,0,0,31.38,43.51,43.51,0,0,0,6,13.72A30.33,30.33,0,0,0,459.31,806a31.34,31.34,0,0,0,15.45,3.61,36.42,36.42,0,0,0,13.33-2,26.56,26.56,0,0,0,9.81-6.11,25.92,25.92,0,0,0,6-9.81,41.46,41.46,0,0,0,2.19-12.86h-29.8V764H524Z"/><path class="cls-1" d="M541.58,711h19.61V823H541.58Z"/><path class="cls-1" d="M580.64,711h20.7l51.14,82.51h.31V711h18.67V823H650.75l-51-82.35h-.47V823H580.64Z"/><path class="cls-1" d="M694.34,711H785V727.9H749.39V823h-19.6V727.9H694.34Z"/><path class="cls-1" d="M841.94,708.29A52,52,0,0,1,864.45,713a50.34,50.34,0,0,1,16.86,12.71,56.51,56.51,0,0,1,10.59,18.66,71.48,71.48,0,0,1,0,45.34,56.51,56.51,0,0,1-10.59,18.66A49.48,49.48,0,0,1,864.45,821a57,57,0,0,1-45,0,49.48,49.48,0,0,1-16.86-12.63A56.33,56.33,0,0,1,792,789.71a71.48,71.48,0,0,1,0-45.34,56.33,56.33,0,0,1,10.59-18.66A50.34,50.34,0,0,1,819.43,713,52,52,0,0,1,841.94,708.29Zm0,16a31.45,31.45,0,0,0-15.45,3.61,30.33,30.33,0,0,0-10.59,9.65,43.61,43.61,0,0,0-6,13.72,63.78,63.78,0,0,0,0,31.38,43.51,43.51,0,0,0,6,13.72A30.33,30.33,0,0,0,826.49,806a34.87,34.87,0,0,0,30.9,0A30.33,30.33,0,0,0,868,796.37a43.51,43.51,0,0,0,6-13.72,63.78,63.78,0,0,0,0-31.38,43.61,43.61,0,0,0-6-13.72,30.33,30.33,0,0,0-10.59-9.65A31.45,31.45,0,0,0,841.94,724.29Z"/><path class="cls-1" d="M909.7,711h49.41q11.92,0,19.45,3.45A30.72,30.72,0,0,1,990.17,723a29.2,29.2,0,0,1,5.57,11.29,48.21,48.21,0,0,1,1.49,11.3,47.11,47.11,0,0,1-1.49,11.21,29.27,29.27,0,0,1-5.57,11.22,30.08,30.08,0,0,1-11.61,8.55Q971,780,959.11,780h-29.8v43H909.7Zm19.61,53H958a25.46,25.46,0,0,0,6.74-.94,19.35,19.35,0,0,0,6.35-3.06,15.54,15.54,0,0,0,4.71-5.65,19.38,19.38,0,0,0,1.8-8.86,23.05,23.05,0,0,0-1.56-9.1,14.57,14.57,0,0,0-4.24-5.72,15.1,15.1,0,0,0-6.12-2.91,33.39,33.39,0,0,0-7.37-.78h-29Z"/><path class="cls-1" d="M471.17,454.51,584.4,628.7A20.91,20.91,0,0,1,566.87,661H486.29a20.9,20.9,0,0,1-17.8-10l-104-169Z"/><path class="cls-1" d="M557.2,540.35l39.21,57.78a20.91,20.91,0,0,0,35.68-1.78l73.1-135-117-6.88L555.8,519.27A20.89,20.89,0,0,0,557.2,540.35Z"/><path class="cls-1" d="M834.91,491.75l-267-227.11a43.09,43.09,0,0,0-55.84,0l-267,227.11c-16.82,14.3-2.3,41.44,18.93,35.4l276-78.61,276,78.61C837.21,533.19,851.73,506.05,834.91,491.75Z"/></svg>