<svg id="Layer_1" data-name="Layer 1" xmlns="http://www.w3.org/2000/svg" viewBox="0 0 1080 1080"><defs><style>.cls-1{fill:#fff;}</style></defs><path class="cls-1" d="M262.23,513.77h24.21l27.09,76.89h.28l26.41-76.89h23.93V612H347.79v-75.8h-.28L320.27,612H306.11l-27.24-75.8h-.27V612H262.23Z"/><path class="cls-1" d="M407.76,513.77h18.29L463.88,612H445.45l-9.22-26H397l-9.22,26H370.07Zm-6.05,59.15h30L417,530.69h-.41Z"/><path class="cls-1" d="M469.93,513.77h46.91q16.23,0,24.35,7t8.11,19.53a28.58,28.58,0,0,1-2.06,11.62,25.26,25.26,0,0,1-4.82,7.43,18.81,18.81,0,0,1-5.43,4.06c-1.79.82-3.09,1.37-3.92,1.65v.27a18,18,0,0,1,4.75,1.38,14.1,14.1,0,0,1,4.74,3.51,19.12,19.12,0,0,1,3.65,6.26,27.72,27.72,0,0,1,1.44,9.63A87.34,87.34,0,0,0,549,601.88Q550.27,609,553,612H534.58a16.12,16.12,0,0,1-2.27-7c-.23-2.57-.34-5-.34-7.43a72,72,0,0,0-.82-11.62,20.61,20.61,0,0,0-3-8.12,12.82,12.82,0,0,0-6-4.74,26.34,26.34,0,0,0-9.69-1.51H487.13V612h-17.2Zm17.2,44.71h28.2q8.25,0,12.51-3.92t4.27-11.76a18.16,18.16,0,0,0-1.38-7.64,11.19,11.19,0,0,0-3.78-4.61,14,14,0,0,0-5.5-2.2,37.26,37.26,0,0,0-6.4-.55H487.13Z"/><path class="cls-1" d="M649.16,612h-11l-2.61-11.56q-6.88,7.85-13.76,10.87a39.09,39.09,0,0,1-15.82,3,46.41,46.41,0,0,1-19.74-4.05,43.41,43.41,0,0,1-14.78-11.08,49.27,49.27,0,0,1-9.29-16.37,62.76,62.76,0,0,1,0-39.75,49.46,49.46,0,0,1,9.29-16.37,44.22,44.22,0,0,1,14.78-11.14A45.69,45.69,0,0,1,606,511.43a53.08,53.08,0,0,1,15.2,2.14A40.63,40.63,0,0,1,634,519.89a35.17,35.17,0,0,1,9.36,10.53A36.88,36.88,0,0,1,648.06,545H631.28a21.11,21.11,0,0,0-8.66-14.58,25.28,25.28,0,0,0-7.71-3.72,32.07,32.07,0,0,0-8.94-1.24,27.56,27.56,0,0,0-13.55,3.17,26.58,26.58,0,0,0-9.28,8.46,38.12,38.12,0,0,0-5.3,12,55.86,55.86,0,0,0,0,27.51,38.08,38.08,0,0,0,5.3,12,26.58,26.58,0,0,0,9.28,8.46A27.55,27.55,0,0,0,606,600.29a31.79,31.79,0,0,0,11.69-1.72,23,23,0,0,0,8.6-5.36,22.56,22.56,0,0,0,5.3-8.6,36.29,36.29,0,0,0,1.92-11.28H607.35V560.27h41.81Z"/><path class="cls-1" d="M664.57,513.77h17.19V612H664.57Z"/><path class="cls-1" d="M698.82,513.77H717l44.84,72.36h.28V513.77h16.37V612H760.31L715.6,539.77h-.41V612H698.82Z"/><path class="cls-1" d="M798.53,513.77H878v14.86H846.81V612h-17.2V528.63H798.53Z"/><path class="cls-1" d="M928,511.43a45.66,45.66,0,0,1,19.74,4.13,44.26,44.26,0,0,1,14.79,11.14,49.62,49.62,0,0,1,9.28,16.37,62.58,62.58,0,0,1,0,39.75,49.42,49.42,0,0,1-9.28,16.37,43.45,43.45,0,0,1-14.79,11.08,50.11,50.11,0,0,1-39.47,0,43.36,43.36,0,0,1-14.79-11.08,49.44,49.44,0,0,1-9.29-16.37,62.76,62.76,0,0,1,0-39.75,49.64,49.64,0,0,1,9.29-16.37,44.16,44.16,0,0,1,14.79-11.14A45.64,45.64,0,0,1,928,511.43Zm0,14a27.56,27.56,0,0,0-13.55,3.17,26.58,26.58,0,0,0-9.28,8.46,38.12,38.12,0,0,0-5.3,12,56.18,56.18,0,0,0,0,27.51,38.08,38.08,0,0,0,5.3,12,26.58,26.58,0,0,0,9.28,8.46,30.63,30.63,0,0,0,27.1,0,26.61,26.61,0,0,0,9.29-8.46,38.06,38.06,0,0,0,5.29-12,55.86,55.86,0,0,0,0-27.51,38.1,38.1,0,0,0-5.29-12,26.61,26.61,0,0,0-9.29-8.46A27.5,27.5,0,0,0,928,525.46Z"/><path class="cls-1" d="M987.39,513.77h43.33q10.46,0,17,3a27,27,0,0,1,10.18,7.56,25.78,25.78,0,0,1,4.89,9.91,42,42,0,0,1,1.3,9.9,41.26,41.26,0,0,1-1.3,9.84,25.74,25.74,0,0,1-4.89,9.83,26.27,26.27,0,0,1-10.18,7.5q-6.6,3-17,3h-26.14V612H987.39Zm17.19,46.5h25.17a22.47,22.47,0,0,0,5.92-.83,16.89,16.89,0,0,0,5.57-2.68,13.81,13.81,0,0,0,4.13-5A17.1,17.1,0,0,0,1047,544a20,20,0,0,0-1.38-8,12.7,12.7,0,0,0-3.71-5,13.34,13.34,0,0,0-5.37-2.54,29,29,0,0,0-6.46-.69h-25.45Z"/><path class="cls-1" d="M101.19,538.84l41.39,63.68a7.64,7.64,0,0,1-6.41,11.8H106.72a7.63,7.63,0,0,1-6.51-3.63l-38-61.79Z"/><path class="cls-1" d="M132.64,570.22,147,591.34a7.65,7.65,0,0,0,13.05-.65l26.72-49.34L144,538.84l-11.83,23.67A7.64,7.64,0,0,0,132.64,570.22Z"/><path class="cls-1" d="M234.16,552.45l-97.6-83a15.75,15.75,0,0,0-20.42,0l-97.6,83c-6.15,5.23-.84,15.15,6.92,12.94l100.89-28.73,100.89,28.73C235,567.6,240.31,557.68,234.16,552.45Z"/></svg>